NotoSansThai-CondensedLight.ufo
<glyph name="uni02D7" format="2">
  <advance width="170"/>
  <unicode hex="02D7"/>
  <outline>
    <contour>
      <point x="158" y="258" type="line"/>
      <point x="158" y="294" type="line"/>
      <point x="12" y="294" type="line"/>
      <point x="12" y="258" type="line"/>
    </contour>
  </outline>
</glyph>
<glyph name="macronbelowcomb" format="2">
  <unicode hex="0331"/>
  <anchor x="-73" y="0" name="_bottom"/>
  <outline>
    <contour>
      <point x="-120" y="-99" type="line"/>
      <point x="-317" y="-99" type="line"/>
      <point x="-317" y="-123" type="line"/>
      <point x="-120" y="-123" type="line"/>
    </contour>
  </outline>
</glyph>
<glyph name="koKai-thai" format="2">
  <advance width="409"/>
  <unicode hex="0E01"/>
  <note>
uni0E01
</note>
  <anchor x="345" y="0" name="bottom"/>
  <anchor x="338" y="536" name="top"/>
  <outline>
    <contour>
      <point x="60" y="0" type="line"/>
      <point x="86" y="0" type="line"/>
      <point x="86" y="213" type="line" smooth="yes"/>
      <point x="86" y="285"/>
      <point x="119" y="313"/>
      <point x="155" y="319" type="curve"/>
      <point x="160" y="350" type="line"/>
      <point x="81" y="401" type="line"/>
      <point x="81" y="473"/>
      <point x="126" y="531"/>
      <point x="200" y="531" type="curve" smooth="yes"/>
      <point x="270" y="531"/>
      <point x="319" y="478"/>
      <point x="319" y="368" type="curve" smooth="yes"/>
      <point x="319" y="0" type="line"/>
      <point x="345" y="0" type="line"/>
      <point x="345" y="374" type="line" smooth="yes"/>
      <point x="345" y="492"/>
      <point x="283" y="556"/>
      <point x="200" y="556" type="curve" smooth="yes"/>
      <point x="107" y="556"/>
      <point x="54" y="481"/>
      <point x="54" y="404" type="curve" smooth="yes"/>
      <point x="54" y="385" type="line"/>
      <point x="134" y="340" type="line"/>
      <point x="133" y="337" type="line"/>
      <point x="94" y="324"/>
      <point x="60" y="292"/>
      <point x="60" y="212" type="curve" smooth="yes"/>
    </contour>
  </outline>
</glyph>
<glyph name="khoKhai-thai" format="2">
  <advance width="376"/>
  <unicode hex="0E02"/>
  <note>
uni0E02
</note>
  <anchor x="298" y="0" name="bottom"/>
  <anchor x="312" y="536" name="top"/>
  <outline>
    <contour>
      <point x="187" y="-10" type="curve" smooth="yes"/>
      <point x="267" y="-10"/>
      <point x="312" y="46"/>
      <point x="312" y="146" type="curve" smooth="yes"/>
      <point x="312" y="548" type="line"/>
      <point x="286" y="548" type="line"/>
      <point x="286" y="147" type="line" smooth="yes"/>
      <point x="286" y="67"/>
      <point x="254" y="15"/>
      <point x="187" y="15" type="curve" smooth="yes"/>
      <point x="127" y="15"/>
      <point x="87" y="58"/>
      <point x="87" y="159" type="curve" smooth="yes"/>
      <point x="87" y="243" type="line" smooth="yes"/>
      <point x="87" y="297"/>
      <point x="99" y="324"/>
      <point x="120" y="362" type="curve" smooth="yes"/>
      <point x="140" y="399"/>
      <point x="158" y="430"/>
      <point x="158" y="476" type="curve" smooth="yes"/>
      <point x="158" y="537"/>
      <point x="130" y="554"/>
      <point x="98" y="554" type="curve" smooth="yes"/>
      <point x="79" y="554"/>
      <point x="59" y="546"/>
      <point x="45" y="535" type="curve"/>
      <point x="52" y="512" type="line"/>
      <point x="61" y="518"/>
      <point x="79" y="529"/>
      <point x="96" y="529" type="curve" smooth="yes"/>
      <point x="114" y="529"/>
      <point x="132" y="518"/>
      <point x="132" y="475" type="curve" smooth="yes"/>
      <point x="132" y="440"/>
      <point x="119" y="415"/>
      <point x="98" y="377" type="curve" smooth="yes"/>
      <point x="76" y="337"/>
      <point x="61" y="307"/>
      <point x="61" y="242" type="curve" smooth="yes"/>
      <point x="61" y="158" type="line" smooth="yes"/>
      <point x="61" y="41"/>
      <point x="110" y="-10"/>
    </contour>
  </outline>
</glyph>
<glyph name="khoKhuat-thai" format="2">
  <advance width="375"/>
  <unicode hex="0E03"/>
  <anchor x="297" y="0" name="bottom"/>
  <anchor x="311" y="536" name="top"/>
  <outline>
    <contour>
      <point x="183" y="-10" type="curve" smooth="yes"/>
      <point x="264" y="-10"/>
      <point x="311" y="46"/>
      <point x="311" y="146" type="curve" smooth="yes"/>
      <point x="311" y="548" type="line"/>
      <point x="285" y="548" type="line"/>
      <point x="285" y="147" type="line" smooth="yes"/>
      <point x="285" y="67"/>
      <point x="251" y="15"/>
      <point x="184" y="15" type="curve" smooth="yes"/>
      <point x="125" y="15"/>
      <point x="84" y="56"/>
      <point x="84" y="159" type="curve" smooth="yes"/>
      <point x="84" y="239" type="line" smooth="yes"/>
      <point x="84" y="296"/>
      <point x="102" y="327"/>
      <point x="126" y="367" type="curve" smooth="yes"/>
      <point x="153" y="411"/>
      <point x="161" y="423"/>
      <point x="161" y="487" type="curve" smooth="yes"/>
      <point x="161" y="548" type="line"/>
      <point x="144" y="548" type="line"/>
      <point x="137" y="496" type="line"/>
      <point x="124" y="475"/>
      <point x="111" y="471"/>
      <point x="99" y="471" type="curve" smooth="yes"/>
      <point x="74" y="471"/>
      <point x="63" y="487"/>
      <point x="63" y="548" type="curve"/>
      <point x="39" y="548" type="line"/>
      <point x="39" y="528" type="line" smooth="yes"/>
      <point x="39" y="473"/>
      <point x="61" y="449"/>
      <point x="91" y="449" type="curve" smooth="yes"/>
      <point x="112" y="449"/>
      <point x="126" y="462"/>
      <point x="135" y="475" type="curve"/>
      <point x="137" y="474" type="line"/>
      <point x="137" y="438"/>
      <point x="129" y="425"/>
      <point x="104" y="380" type="curve" smooth="yes"/>
      <point x="82" y="341"/>
      <point x="58" y="303"/>
      <point x="58" y="243" type="curve" smooth="yes"/>
      <point x="58" y="158" type="line" smooth="yes"/>
      <point x="58" y="41"/>
      <point x="105" y="-10"/>
    </contour>
  </outline>
</glyph>
<glyph name="khoKhwai-thai" format="2">
  <advance width="423"/>
  <unicode hex="0E04"/>
  <note>
uni0E04
</note>
  <anchor x="359" y="0" name="bottom"/>
  <anchor x="352" y="536" name="top"/>
  <outline>
    <contour>
      <point x="64" y="0" type="line"/>
      <point x="90" y="0" type="line"/>
      <point x="90" y="136" type="line" smooth="yes"/>
      <point x="90" y="222"/>
      <point x="130" y="271"/>
      <point x="201" y="271" type="curve" smooth="yes"/>
      <point x="235" y="271" type="line"/>
      <point x="235" y="296" type="line"/>
      <point x="200" y="296" type="line" smooth="yes"/>
      <point x="143" y="296"/>
      <point x="111" y="264"/>
      <point x="92" y="228" type="curve"/>
      <point x="90" y="229" type="line"/>
      <point x="90" y="367" type="line" smooth="yes"/>
      <point x="90" y="475"/>
      <point x="136" y="531"/>
      <point x="212" y="531" type="curve" smooth="yes"/>
      <point x="288" y="531"/>
      <point x="333" y="475"/>
      <point x="333" y="367" type="curve" smooth="yes"/>
      <point x="333" y="0" type="line"/>
      <point x="359" y="0" type="line"/>
      <point x="359" y="369" type="line" smooth="yes"/>
      <point x="359" y="489"/>
      <point x="305" y="556"/>
      <point x="212" y="556" type="curve" smooth="yes"/>
      <point x="118" y="556"/>
      <point x="64" y="489"/>
      <point x="64" y="369" type="curve" smooth="yes"/>
    </contour>
  </outline>
</glyph>
<glyph name="khoKhon-thai" format="2">
  <advance width="428"/>
  <unicode hex="0E05"/>
  <anchor x="364" y="0" name="bottom"/>
  <anchor x="357" y="536" name="top"/>
  <outline>
    <contour>
      <point x="64" y="0" type="line"/>
      <point x="90" y="0" type="line"/>
      <point x="90" y="136" type="line" smooth="yes"/>
      <point x="90" y="222"/>
      <point x="132" y="271"/>
      <point x="203" y="271" type="curve" smooth="yes"/>
      <point x="236" y="271" type="line"/>
      <point x="236" y="296" type="line"/>
      <point x="201" y="296" type="line" smooth="yes"/>
      <point x="144" y="296"/>
      <point x="111" y="264"/>
      <point x="92" y="228" type="curve"/>
      <point x="90" y="229" type="line"/>
      <point x="90" y="429" type="line" smooth="yes"/>
      <point x="90" y="502"/>
      <point x="114" y="531"/>
      <point x="146" y="531" type="curve" smooth="yes"/>
      <point x="178" y="531"/>
      <point x="200" y="502"/>
      <point x="203" y="459" type="curve"/>
      <point x="224" y="459" type="line"/>
      <point x="228" y="502"/>
      <point x="249" y="531"/>
      <point x="281" y="531" type="curve" smooth="yes"/>
      <point x="313" y="531"/>
      <point x="338" y="502"/>
      <point x="338" y="429" type="curve" smooth="yes"/>
      <point x="338" y="0" type="line"/>
      <point x="364" y="0" type="line"/>
      <point x="364" y="432" type="line" smooth="yes"/>
      <point x="364" y="518"/>
      <point x="331" y="556"/>
      <point x="284" y="556" type="curve" smooth="yes"/>
      <point x="249" y="556"/>
      <point x="222" y="533"/>
      <point x="215" y="497" type="curve"/>
      <point x="212" y="497" type="line"/>
      <point x="205" y="533"/>
      <point x="179" y="556"/>
      <point x="144" y="556" type="curve" smooth="yes"/>
      <point x="96" y="556"/>
      <point x="64" y="518"/>
      <point x="64" y="432" type="curve" smooth="yes"/>
    </contour>
  </outline>
</glyph>
<glyph name="khoRakhang-thai" format="2">
  <advance width="412"/>
  <unicode hex="0E06"/>
  <anchor x="334" y="0" name="bottom"/>
  <anchor x="348" y="536" name="top"/>
  <outline>
    <contour>
      <point x="220" y="-10" type="curve" smooth="yes"/>
      <point x="294" y="-10"/>
      <point x="348" y="46"/>
      <point x="348" y="165" type="curve" smooth="yes"/>
      <point x="348" y="548" type="line"/>
      <point x="322" y="548" type="line"/>
      <point x="322" y="168" type="line" smooth="yes"/>
      <point x="322" y="68"/>
      <point x="283" y="15"/>
      <point x="218" y="15" type="curve" smooth="yes"/>
      <point x="137" y="15"/>
      <point x="84" y="98"/>
      <point x="84" y="206" type="curve" smooth="yes"/>
      <point x="84" y="235" type="line" smooth="yes"/>
      <point x="84" y="292"/>
      <point x="102" y="324"/>
      <point x="127" y="367" type="curve" smooth="yes"/>
      <point x="153" y="412"/>
      <point x="164" y="429"/>
      <point x="164" y="487" type="curve" smooth="yes"/>
      <point x="164" y="548" type="line"/>
      <point x="147" y="548" type="line"/>
      <point x="140" y="496" type="line"/>
      <point x="127" y="475"/>
      <point x="114" y="471"/>
      <point x="102" y="471" type="curve" smooth="yes"/>
      <point x="77" y="471"/>
      <point x="66" y="487"/>
      <point x="66" y="548" type="curve"/>
      <point x="42" y="548" type="line"/>
      <point x="42" y="528" type="line" smooth="yes"/>
      <point x="42" y="473"/>
      <point x="64" y="449"/>
      <point x="94" y="449" type="curve" smooth="yes"/>
      <point x="115" y="449"/>
      <point x="129" y="462"/>
      <point x="138" y="475" type="curve"/>
      <point x="140" y="474" type="line"/>
      <point x="140" y="439"/>
      <point x="132" y="426"/>
      <point x="105" y="380" type="curve" smooth="yes"/>
      <point x="82" y="341"/>
      <point x="58" y="299"/>
      <point x="58" y="239" type="curve" smooth="yes"/>
      <point x="58" y="0" type="line"/>
      <point x="81" y="0" type="line"/>
      <point x="84" y="95" type="line"/>
      <point x="86" y="95" type="line"/>
      <point x="109" y="37"/>
      <point x="153" y="-10"/>
    </contour>
  </outline>
</glyph>
<glyph name="ngoNgu-thai" format="2">
  <advance width="375"/>
  <unicode hex="0E07"/>
  <note>
uni0E07
</note>
  <anchor x="254" y="0" name="bottom"/>
  <anchor x="305" y="536" name="top"/>
  <outline>
    <contour>
      <point x="135" y="0" type="line"/>
      <point x="157" y="0" type="line" smooth="yes"/>
      <point x="204" y="0"/>
      <point x="241" y="19"/>
      <point x="267" y="51" type="curve" smooth="yes"/>
      <point x="308" y="102"/>
      <point x="329" y="189"/>
      <point x="329" y="298" type="curve" smooth="yes"/>
      <point x="329" y="375"/>
      <point x="319" y="443"/>
      <point x="292" y="489" type="curve" smooth="yes"/>
      <point x="268" y="529"/>
      <point x="234" y="553"/>
      <point x="187" y="553" type="curve" smooth="yes"/>
      <point x="176" y="553"/>
      <point x="158" y="551"/>
      <point x="146" y="545" type="curve"/>
      <point x="153" y="521" type="line"/>
      <point x="160" y="524"/>
      <point x="175" y="528"/>
      <point x="186" y="528" type="curve" smooth="yes"/>
      <point x="262" y="528"/>
      <point x="303" y="445"/>
      <point x="303" y="301" type="curve" smooth="yes"/>
      <point x="303" y="202"/>
      <point x="284" y="115"/>
      <point x="248" y="70" type="curve" smooth="yes"/>
      <point x="225" y="41"/>
      <point x="198" y="25"/>
      <point x="166" y="25" type="curve" smooth="yes"/>
      <point x="155" y="25" type="line"/>
      <point x="44" y="548" type="line"/>
      <point x="17" y="548" type="line"/>
    </contour>
  </outline>
</glyph>
<glyph name="choChan-thai" format="2">
  <advance width="365"/>
  <unicode hex="0E08"/>
  <anchor x="277" y="0" name="bottom"/>
  <anchor x="304" y="536" name="top"/>
  <outline>
    <contour>
      <point x="117" y="0" type="line"/>
      <point x="144" y="0" type="line" smooth="yes"/>
      <point x="258" y="0"/>
      <point x="314" y="71"/>
      <point x="314" y="274" type="curve" smooth="yes"/>
      <point x="314" y="470"/>
      <point x="272" y="556"/>
      <point x="158" y="556" type="curve" smooth="yes"/>
      <point x="107" y="556"/>
      <point x="61" y="531"/>
      <point x="34" y="511" type="curve"/>
      <point x="34" y="482" type="line"/>
      <point x="71" y="512"/>
      <point x="111" y="531"/>
      <point x="153" y="531" type="curve" smooth="yes"/>
      <point x="249" y="531"/>
      <point x="287" y="464"/>
      <point x="287" y="275" type="curve" smooth="yes"/>
      <point x="287" y="82"/>
      <point x="232" y="25"/>
      <point x="153" y="25" type="curve" smooth="yes"/>
      <point x="143" y="25" type="line"/>
      <point x="143" y="300" type="line"/>
      <point x="65" y="300" type="line"/>
      <point x="65" y="277" type="line"/>
      <point x="117" y="277" type="line"/>
    </contour>
  </outline>
</glyph>
<glyph name="choChing-thai" format="2">
  <advance width="418"/>
  <unicode hex="0E09"/>
  <anchor x="354" y="0" name="bottom"/>
  <anchor x="347" y="536" name="top"/>
  <outline>
    <contour>
      <point x="194" y="-10" type="curve" smooth="yes"/>
      <point x="255" y="-10"/>
      <point x="303" y="28"/>
      <point x="326" y="89" type="curve"/>
      <point x="329" y="89" type="line"/>
      <point x="331" y="0" type="line"/>
      <point x="354" y="0" type="line"/>
      <point x="354" y="347" type="line" smooth="yes"/>
      <point x="354" y="499"/>
      <point x="296" y="556"/>
      <point x="202" y="556" type="curve" smooth="yes"/>
      <point x="143" y="556"/>
      <point x="96" y="534"/>
      <point x="70" y="513" type="curve"/>
      <point x="70" y="484" type="line"/>
      <point x="107" y="515"/>
      <point x="149" y="531"/>
      <point x="196" y="531" type="curve" smooth="yes"/>
      <point x="283" y="531"/>
      <point x="328" y="475"/>
      <point x="328" y="340" type="curve" smooth="yes"/>
      <point x="328" y="206" type="line" smooth="yes"/>
      <point x="328" y="90"/>
      <point x="275" y="15"/>
      <point x="197" y="15" type="curve" smooth="yes"/>
      <point x="128" y="15"/>
      <point x="90" y="74"/>
      <point x="90" y="173" type="curve" smooth="yes"/>
      <point x="90" y="313" type="line"/>
      <point x="64" y="313" type="line"/>
      <point x="64" y="170" type="line" smooth="yes"/>
      <point x="64" y="52"/>
      <point x="115" y="-10"/>
    </contour>
  </outline>
</glyph>
<glyph name="choChang-thai" format="2">
  <advance width="375"/>
  <unicode hex="0E0A"/>
  <anchor x="296" y="0" name="bottom"/>
  <anchor x="321" y="536" name="top"/>
  <outline>
    <contour>
      <point x="186" y="-10" type="curve" smooth="yes"/>
      <point x="264" y="-10"/>
      <point x="310" y="46"/>
      <point x="310" y="146" type="curve" smooth="yes"/>
      <point x="310" y="312" type="line" smooth="yes"/>
      <point x="310" y="356"/>
      <point x="300" y="390"/>
      <point x="264" y="409" type="curve"/>
      <point x="264" y="412" type="line"/>
      <point x="300" y="432"/>
      <point x="315" y="472"/>
      <point x="315" y="548" type="curve"/>
      <point x="289" y="548" type="line"/>
      <point x="289" y="476"/>
      <point x="274" y="422"/>
      <point x="223" y="422" type="curve" smooth="yes"/>
      <point x="213" y="422" type="line"/>
      <point x="213" y="400" type="line"/>
      <point x="222" y="400" type="line" smooth="yes"/>
      <point x="256" y="400"/>
      <point x="284" y="371"/>
      <point x="284" y="311" type="curve" smooth="yes"/>
      <point x="284" y="147" type="line" smooth="yes"/>
      <point x="284" y="67"/>
      <point x="252" y="15"/>
      <point x="186" y="15" type="curve" smooth="yes"/>
      <point x="124" y="15"/>
      <point x="84" y="58"/>
      <point x="84" y="159" type="curve" smooth="yes"/>
      <point x="84" y="243" type="line" smooth="yes"/>
      <point x="84" y="297"/>
      <point x="97" y="324"/>
      <point x="118" y="362" type="curve" smooth="yes"/>
      <point x="138" y="399"/>
      <point x="156" y="429"/>
      <point x="156" y="477" type="curve" smooth="yes"/>
      <point x="156" y="537"/>
      <point x="126" y="554"/>
      <point x="97" y="554" type="curve" smooth="yes"/>
      <point x="78" y="554"/>
      <point x="59" y="547"/>
      <point x="45" y="537" type="curve"/>
      <point x="52" y="514" type="line"/>
      <point x="61" y="520"/>
      <point x="78" y="529"/>
      <point x="92" y="529" type="curve" smooth="yes"/>
      <point x="113" y="529"/>
      <point x="130" y="518"/>
      <point x="130" y="474" type="curve" smooth="yes"/>
      <point x="130" y="442"/>
      <point x="117" y="414"/>
      <point x="96" y="377" type="curve" smooth="yes"/>
      <point x="75" y="340"/>
      <point x="58" y="308"/>
      <point x="58" y="242" type="curve" smooth="yes"/>
      <point x="58" y="158" type="line" smooth="yes"/>
      <point x="58" y="41"/>
      <point x="107" y="-10"/>
    </contour>
  </outline>
</glyph>
<glyph name="soSo-thai" format="2">
  <advance width="379"/>
  <unicode hex="0E0B"/>
  <note>
uni0E0B
</note>
  <anchor x="300" y="0" name="bottom"/>
  <anchor x="320" y="536" name="top"/>
  <outline>
    <contour>
      <point x="187" y="-10" type="curve" smooth="yes"/>
      <point x="266" y="-10"/>
      <point x="314" y="46"/>
      <point x="314" y="146" type="curve" smooth="yes"/>
      <point x="314" y="312" type="line" smooth="yes"/>
      <point x="314" y="356"/>
      <point x="302" y="391"/>
      <point x="266" y="410" type="curve"/>
      <point x="266" y="413" type="line"/>
      <point x="304" y="432"/>
      <point x="319" y="472"/>
      <point x="319" y="548" type="curve"/>
      <point x="293" y="548" type="line"/>
      <point x="293" y="476"/>
      <point x="278" y="422"/>
      <point x="227" y="422" type="curve" smooth="yes"/>
      <point x="217" y="422" type="line"/>
      <point x="217" y="400" type="line"/>
      <point x="226" y="400" type="line" smooth="yes"/>
      <point x="260" y="400"/>
      <point x="288" y="371"/>
      <point x="288" y="311" type="curve" smooth="yes"/>
      <point x="288" y="147" type="line" smooth="yes"/>
      <point x="288" y="67"/>
      <point x="254" y="15"/>
      <point x="187" y="15" type="curve" smooth="yes"/>
      <point x="127" y="15"/>
      <point x="87" y="56"/>
      <point x="87" y="159" type="curve" smooth="yes"/>
      <point x="87" y="242" type="line" smooth="yes"/>
      <point x="87" y="294"/>
      <point x="101" y="325"/>
      <point x="126" y="367" type="curve" smooth="yes"/>
      <point x="153" y="412"/>
      <point x="161" y="423"/>
      <point x="161" y="487" type="curve" smooth="yes"/>
      <point x="161" y="548" type="line"/>
      <point x="144" y="548" type="line"/>
      <point x="137" y="496" type="line"/>
      <point x="126" y="478"/>
      <point x="113" y="471"/>
      <point x="100" y="471" type="curve" smooth="yes"/>
      <point x="74" y="471"/>
      <point x="63" y="485"/>
      <point x="63" y="548" type="curve"/>
      <point x="39" y="548" type="line"/>
      <point x="39" y="528" type="line" smooth="yes"/>
      <point x="39" y="473"/>
      <point x="61" y="449"/>
      <point x="92" y="449" type="curve" smooth="yes"/>
      <point x="112" y="449"/>
      <point x="126" y="462"/>
      <point x="135" y="475" type="curve"/>
      <point x="137" y="474" type="line"/>
      <point x="137" y="439"/>
      <point x="128" y="423"/>
      <point x="104" y="380" type="curve" smooth="yes"/>
      <point x="82" y="341"/>
      <point x="61" y="303"/>
      <point x="61" y="243" type="curve" smooth="yes"/>
      <point x="61" y="158" type="line" smooth="yes"/>
      <point x="61" y="41"/>
      <point x="108" y="-10"/>
    </contour>
  </outline>
</glyph>
<glyph name="choChoe-thai" format="2">
  <advance width="624"/>
  <unicode hex="0E0C"/>
  <anchor x="546" y="0" name="bottom"/>
  <anchor x="560" y="536" name="top"/>
  <outline>
    <contour>
      <point x="135" y="-7" type="curve" smooth="yes"/>
      <point x="150" y="-7"/>
      <point x="164" y="-3"/>
      <point x="178" y="5" type="curve"/>
      <point x="173" y="28" type="line"/>
      <point x="163" y="22"/>
      <point x="149" y="17"/>
      <point x="136" y="17" type="curve" smooth="yes"/>
      <point x="107" y="17"/>
      <point x="89" y="40"/>
      <point x="89" y="89" type="curve" smooth="yes"/>
      <point x="89" y="213" type="line" smooth="yes"/>
      <point x="89" y="285"/>
      <point x="119" y="313"/>
      <point x="155" y="319" type="curve"/>
      <point x="160" y="350" type="line"/>
      <point x="80" y="401" type="line"/>
      <point x="80" y="478"/>
      <point x="125" y="531"/>
      <point x="191" y="531" type="curve" smooth="yes"/>
      <point x="255" y="531"/>
      <point x="303" y="483"/>
      <point x="303" y="368" type="curve" smooth="yes"/>
      <point x="303" y="0" type="line"/>
      <point x="326" y="0" type="line"/>
      <point x="328" y="85" type="line"/>
      <point x="331" y="85" type="line"/>
      <point x="354" y="25"/>
      <point x="390" y="-10"/>
      <point x="449" y="-10" type="curve" smooth="yes"/>
      <point x="514" y="-10"/>
      <point x="560" y="42"/>
      <point x="560" y="152" type="curve" smooth="yes"/>
      <point x="560" y="548" type="line"/>
      <point x="534" y="548" type="line"/>
      <point x="534" y="156" type="line" smooth="yes"/>
      <point x="534" y="66"/>
      <point x="501" y="15"/>
      <point x="446" y="15" type="curve" smooth="yes"/>
      <point x="377" y="15"/>
      <point x="329" y="93"/>
      <point x="329" y="196" type="curve" smooth="yes"/>
      <point x="329" y="374" type="line" smooth="yes"/>
      <point x="329" y="496"/>
      <point x="269" y="556"/>
      <point x="191" y="556" type="curve" smooth="yes"/>
      <point x="107" y="556"/>
      <point x="53" y="487"/>
      <point x="53" y="404" type="curve" smooth="yes"/>
      <point x="53" y="385" type="line"/>
      <point x="133" y="340" type="line"/>
      <point x="133" y="337" type="line"/>
      <point x="94" y="324"/>
      <point x="63" y="292"/>
      <point x="63" y="212" type="curve" smooth="yes"/>
      <point x="63" y="88" type="line" smooth="yes"/>
      <point x="63" y="20"/>
      <point x="94" y="-7"/>
    </contour>
  </outline>
</glyph>
<glyph name="yoYing-thai" format="2">
  <advance width="630"/>
  <unicode hex="0E0D"/>
  <anchor x="550" y="-100" name="bottom"/>
  <anchor x="558" y="536" name="top"/>
  <outline>
    <contour>
      <point x="422" y="-148" type="curve" smooth="yes"/>
      <point x="503" y="-148"/>
      <point x="558" y="-100"/>
      <point x="558" y="35" type="curve" smooth="yes"/>
      <point x="558" y="548" type="line"/>
      <point x="532" y="548" type="line"/>
      <point x="532" y="206" type="line" smooth="yes"/>
      <point x="532" y="102"/>
      <point x="485" y="25"/>
      <point x="410" y="25" type="curve" smooth="yes"/>
      <point x="355" y="25"/>
      <point x="326" y="67"/>
      <point x="326" y="155" type="curve" smooth="yes"/>
      <point x="326" y="374" type="line" smooth="yes"/>
      <point x="326" y="499"/>
      <point x="266" y="556"/>
      <point x="190" y="556" type="curve" smooth="yes"/>
      <point x="106" y="556"/>
      <point x="53" y="488"/>
      <point x="53" y="404" type="curve" smooth="yes"/>
      <point x="53" y="385" type="line"/>
      <point x="133" y="340" type="line"/>
      <point x="133" y="337" type="line"/>
      <point x="94" y="324"/>
      <point x="63" y="292"/>
      <point x="63" y="212" type="curve" smooth="yes"/>
      <point x="63" y="88" type="line" smooth="yes"/>
      <point x="63" y="20"/>
      <point x="94" y="-7"/>
      <point x="135" y="-7" type="curve" smooth="yes"/>
      <point x="150" y="-7"/>
      <point x="164" y="-3"/>
      <point x="178" y="5" type="curve"/>
      <point x="173" y="28" type="line"/>
      <point x="163" y="22"/>
      <point x="149" y="17"/>
      <point x="136" y="17" type="curve" smooth="yes"/>
      <point x="107" y="17"/>
      <point x="89" y="40"/>
      <point x="89" y="89" type="curve" smooth="yes"/>
      <point x="89" y="213" type="line" smooth="yes"/>
      <point x="89" y="285"/>
      <point x="119" y="313"/>
      <point x="155" y="319" type="curve"/>
      <point x="160" y="350" type="line"/>
      <point x="80" y="401" type="line"/>
      <point x="80" y="480"/>
      <point x="124" y="531"/>
      <point x="190" y="531" type="curve" smooth="yes"/>
      <point x="253" y="531"/>
      <point x="300" y="485"/>
      <point x="300" y="368" type="curve" smooth="yes"/>
      <point x="300" y="150" type="line" smooth="yes"/>
      <point x="300" y="42"/>
      <point x="345" y="0"/>
      <point x="408" y="0" type="curve" smooth="yes"/>
      <point x="469" y="0"/>
      <point x="506" y="40"/>
      <point x="529" y="90" type="curve"/>
      <point x="532" y="90" type="line"/>
      <point x="532" y="38" type="line" smooth="yes"/>
      <point x="532" y="-87"/>
      <point x="483" y="-123"/>
      <point x="421" y="-123" type="curve" smooth="yes"/>
      <point x="383" y="-123"/>
      <point x="345" y="-109"/>
      <point x="315" y="-86" type="curve"/>
      <point x="315" y="-115" type="line"/>
      <point x="347" y="-136"/>
      <point x="382" y="-148"/>
    </contour>
  </outline>
</glyph>
<glyph name="doChada-thai" format="2">
  <advance width="407"/>
  <unicode hex="0E0E"/>
  <anchor x="343" y="-174" name="bottom"/>
  <anchor x="336" y="536" name="top"/>
  <outline>
    <contour>
      <point x="74" y="-190" type="line"/>
      <point x="100" y="-190" type="line"/>
      <point x="100" y="-183" type="line" smooth="yes"/>
      <point x="100" y="-131"/>
      <point x="124" y="-95"/>
      <point x="177" y="-95" type="curve" smooth="yes"/>
      <point x="235" y="-95"/>
      <point x="292" y="-149"/>
      <point x="323" y="-190" type="curve"/>
      <point x="343" y="-190" type="line"/>
      <point x="343" y="374" type="line" smooth="yes"/>
      <point x="343" y="492"/>
      <point x="283" y="556"/>
      <point x="199" y="556" type="curve" smooth="yes"/>
      <point x="106" y="556"/>
      <point x="53" y="481"/>
      <point x="53" y="404" type="curve" smooth="yes"/>
      <point x="53" y="385" type="line"/>
      <point x="134" y="340" type="line"/>
      <point x="133" y="337" type="line"/>
      <point x="94" y="324"/>
      <point x="68" y="292"/>
      <point x="68" y="212" type="curve" smooth="yes"/>
      <point x="68" y="64" type="line" smooth="yes"/>
      <point x="68" y="32"/>
      <point x="64" y="18"/>
      <point x="47" y="18" type="curve" smooth="yes"/>
      <point x="39" y="18"/>
      <point x="32" y="21"/>
      <point x="25" y="25" type="curve"/>
      <point x="20" y="2" type="line"/>
      <point x="30" y="-4"/>
      <point x="42" y="-7"/>
      <point x="51" y="-7" type="curve" smooth="yes"/>
      <point x="76" y="-7"/>
      <point x="94" y="10"/>
      <point x="94" y="59" type="curve" smooth="yes"/>
      <point x="94" y="213" type="line" smooth="yes"/>
      <point x="94" y="285"/>
      <point x="119" y="313"/>
      <point x="156" y="319" type="curve"/>
      <point x="160" y="350" type="line"/>
      <point x="80" y="401" type="line"/>
      <point x="80" y="473"/>
      <point x="125" y="531"/>
      <point x="198" y="531" type="curve" smooth="yes"/>
      <point x="269" y="531"/>
      <point x="317" y="478"/>
      <point x="317" y="368" type="curve" smooth="yes"/>
      <point x="317" y="-165" type="line"/>
      <point x="325" y="-163" type="line"/>
      <point x="277" y="-98"/>
      <point x="223" y="-70"/>
      <point x="170" y="-70" type="curve" smooth="yes"/>
      <point x="104" y="-70"/>
      <point x="74" y="-120"/>
      <point x="74" y="-176" type="curve" smooth="yes"/>
    </contour>
  </outline>
</glyph>
<glyph name="thoThan-thai" format="2">
  <advance width="375"/>
  <unicode hex="0E10"/>
  <anchor x="307" y="-160" name="bottom"/>
  <anchor x="317" y="536" name="top"/>
  <outline>
    <contour>
      <point x="114" y="0" type="line"/>
      <point x="141" y="0" type="line" smooth="yes"/>
      <point x="255" y="0"/>
      <point x="311" y="71"/>
      <point x="311" y="274" type="curve" smooth="yes"/>
      <point x="311" y="375"/>
      <point x="299" y="447"/>
      <point x="270" y="493" type="curve"/>
      <point x="248" y="536"/>
      <point x="209" y="556"/>
      <point x="155" y="556" type="curve" smooth="yes"/>
      <point x="104" y="556"/>
      <point x="58" y="531"/>
      <point x="31" y="511" type="curve"/>
      <point x="31" y="482" type="line"/>
      <point x="68" y="512"/>
      <point x="108" y="531"/>
      <point x="150" y="531" type="curve" smooth="yes"/>
      <point x="246" y="531"/>
      <point x="284" y="464"/>
      <point x="284" y="275" type="curve" smooth="yes"/>
      <point x="284" y="82"/>
      <point x="229" y="25"/>
      <point x="150" y="25" type="curve" smooth="yes"/>
      <point x="140" y="25" type="line"/>
      <point x="140" y="300" type="line"/>
      <point x="62" y="300" type="line"/>
      <point x="62" y="277" type="line"/>
      <point x="114" y="277" type="line"/>
    </contour>
    <contour>
      <point x="44" y="-190" type="line"/>
      <point x="69" y="-190" type="line"/>
      <point x="69" y="-180" type="line" smooth="yes"/>
      <point x="69" y="-135"/>
      <point x="79" y="-105"/>
      <point x="108" y="-105" type="curve" smooth="yes"/>
      <point x="138" y="-105"/>
      <point x="158" y="-148"/>
      <point x="174" y="-190" type="curve"/>
      <point x="182" y="-190" type="line"/>
      <point x="232" y="-120" type="line"/>
      <point x="283" y="-190" type="line"/>
      <point x="307" y="-190" type="line"/>
      <point x="307" y="-65" type="line"/>
      <point x="283" y="-65" type="line"/>
      <point x="283" y="-163" type="line"/>
      <point x="289" y="-159" type="line"/>
      <point x="232" y="-86" type="line"/>
      <point x="182" y="-154" type="line"/>
      <point x="166" y="-122"/>
      <point x="144" y="-80"/>
      <point x="105" y="-80" type="curve" smooth="yes"/>
      <point x="68" y="-80"/>
      <point x="44" y="-118"/>
      <point x="44" y="-176" type="curve" smooth="yes"/>
    </contour>
    <contour>
      <point x="268" y="479" type="line"/>
      <point x="309" y="493"/>
      <point x="341" y="528"/>
      <point x="341" y="584" type="curve"/>
      <point x="314" y="584" type="line"/>
      <point x="314" y="533"/>
      <point x="286" y="509"/>
      <point x="254" y="498" type="curve"/>
    </contour>
  </outline>
</glyph>
<glyph name="thoNangmontho-thai" format="2">
  <advance width="429"/>
  <unicode hex="0E11"/>
  <anchor x="366" y="0" name="bottom"/>
  <anchor x="359" y="536" name="top"/>
  <outline>
    <contour>
      <point x="73" y="0" type="line"/>
      <point x="99" y="0" type="line"/>
      <point x="99" y="236" type="line" smooth="yes"/>
      <point x="99" y="314"/>
      <point x="106" y="330"/>
      <point x="137" y="387" type="curve" smooth="yes"/>
      <point x="187" y="479"/>
      <point x="221" y="532"/>
      <point x="270" y="532" type="curve" smooth="yes"/>
      <point x="311" y="532"/>
      <point x="339" y="498"/>
      <point x="339" y="427" type="curve" smooth="yes"/>
      <point x="339" y="0" type="line"/>
      <point x="365" y="0" type="line"/>
      <point x="365" y="436" type="line" smooth="yes"/>
      <point x="365" y="510"/>
      <point x="332" y="556"/>
      <point x="272" y="556" type="curve" smooth="yes"/>
      <point x="222" y="556"/>
      <point x="193" y="517"/>
      <point x="165" y="475" type="curve"/>
      <point x="162" y="475" type="line"/>
      <point x="162" y="548" type="line"/>
      <point x="143" y="548" type="line"/>
      <point x="136" y="496" type="line"/>
      <point x="124" y="478"/>
      <point x="113" y="471"/>
      <point x="98" y="471" type="curve" smooth="yes"/>
      <point x="74" y="471"/>
      <point x="63" y="487"/>
      <point x="63" y="548" type="curve"/>
      <point x="39" y="548" type="line"/>
      <point x="39" y="528" type="line" smooth="yes"/>
      <point x="39" y="473"/>
      <point x="61" y="449"/>
      <point x="91" y="449" type="curve" smooth="yes"/>
      <point x="112" y="449"/>
      <point x="126" y="462"/>
      <point x="135" y="475" type="curve"/>
      <point x="137" y="474" type="line"/>
      <point x="137" y="441"/>
      <point x="129" y="423"/>
      <point x="103" y="380" type="curve" smooth="yes"/>
      <point x="85" y="350"/>
      <point x="73" y="323"/>
      <point x="73" y="249" type="curve" smooth="yes"/>
    </contour>
  </outline>
</glyph>
<glyph name="thoPhuthao-thai" format="2">
  <advance width="622"/>
  <unicode hex="0E12"/>
  <anchor x="564" y="0" name="bottom"/>
  <anchor x="577" y="536" name="top"/>
  <outline>
    <contour>
      <point x="186" y="-10" type="curve" smooth="yes"/>
      <point x="202" y="-10"/>
      <point x="217" y="-5"/>
      <point x="225" y="1" type="curve"/>
      <point x="222" y="23" type="line"/>
      <point x="213" y="18"/>
      <point x="202" y="15"/>
      <point x="190" y="15" type="curve" smooth="yes"/>
      <point x="101" y="15"/>
      <point x="77" y="98"/>
      <point x="77" y="283" type="curve" smooth="yes"/>
      <point x="77" y="468"/>
      <point x="101" y="531"/>
      <point x="144" y="531" type="curve" smooth="yes"/>
      <point x="175" y="531"/>
      <point x="191" y="508"/>
      <point x="196" y="460" type="curve"/>
      <point x="216" y="460" type="line"/>
      <point x="223" y="504"/>
      <point x="235" y="531"/>
      <point x="268" y="531" type="curve" smooth="yes"/>
      <point x="307" y="531"/>
      <point x="320" y="502"/>
      <point x="320" y="429" type="curve" smooth="yes"/>
      <point x="320" y="0" type="line"/>
      <point x="343" y="0" type="line"/>
      <point x="345" y="88" type="line"/>
      <point x="348" y="88" type="line"/>
      <point x="367" y="37"/>
      <point x="404" y="-10"/>
      <point x="467" y="-10" type="curve" smooth="yes"/>
      <point x="531" y="-10"/>
      <point x="578" y="43"/>
      <point x="578" y="152" type="curve" smooth="yes"/>
      <point x="578" y="548" type="line"/>
      <point x="552" y="548" type="line"/>
      <point x="552" y="156" type="line" smooth="yes"/>
      <point x="552" y="66"/>
      <point x="520" y="15"/>
      <point x="459" y="15" type="curve" smooth="yes"/>
      <point x="396" y="15"/>
      <point x="346" y="92"/>
      <point x="346" y="196" type="curve" smooth="yes"/>
      <point x="346" y="427" type="line" smooth="yes"/>
      <point x="346" y="513"/>
      <point x="325" y="556"/>
      <point x="272" y="556" type="curve" smooth="yes"/>
      <point x="238" y="556"/>
      <point x="217" y="527"/>
      <point x="208" y="502" type="curve"/>
      <point x="205" y="502" type="line"/>
      <point x="197" y="527"/>
      <point x="180" y="556"/>
      <point x="141" y="556" type="curve" smooth="yes"/>
      <point x="89" y="556"/>
      <point x="51" y="499"/>
      <point x="51" y="281" type="curve" smooth="yes"/>
      <point x="51" y="87"/>
      <point x="82" y="-10"/>
    </contour>
  </outline>
</glyph>
<glyph name="noNen-thai" format="2">
  <advance width="630"/>
  <unicode hex="0E13"/>
  <anchor x="558" y="0" name="bottom"/>
  <anchor x="558" y="536" name="top"/>
  <outline>
    <contour>
      <point x="135" y="-7" type="curve" smooth="yes"/>
      <point x="150" y="-7"/>
      <point x="164" y="-3"/>
      <point x="178" y="5" type="curve"/>
      <point x="173" y="28" type="line"/>
      <point x="163" y="22"/>
      <point x="149" y="17"/>
      <point x="137" y="17" type="curve" smooth="yes"/>
      <point x="107" y="17"/>
      <point x="89" y="40"/>
      <point x="89" y="89" type="curve" smooth="yes"/>
      <point x="89" y="213" type="line" smooth="yes"/>
      <point x="89" y="285"/>
      <point x="119" y="313"/>
      <point x="155" y="319" type="curve"/>
      <point x="160" y="350" type="line"/>
      <point x="80" y="401" type="line"/>
      <point x="80" y="480"/>
      <point x="125" y="531"/>
      <point x="189" y="531" type="curve" smooth="yes"/>
      <point x="253" y="531"/>
      <point x="300" y="485"/>
      <point x="300" y="368" type="curve" smooth="yes"/>
      <point x="300" y="152" type="line" smooth="yes"/>
      <point x="300" y="43"/>
      <point x="345" y="-10"/>
      <point x="414" y="-10" type="curve" smooth="yes"/>
      <point x="468" y="-10"/>
      <point x="510" y="33"/>
      <point x="530" y="88" type="curve"/>
      <point x="532" y="88" type="line"/>
      <point x="535" y="0" type="line"/>
      <point x="558" y="0" type="line"/>
      <point x="558" y="548" type="line"/>
      <point x="532" y="548" type="line"/>
      <point x="532" y="196" type="line" smooth="yes"/>
      <point x="532" y="92"/>
      <point x="481" y="15"/>
      <point x="419" y="15" type="curve" smooth="yes"/>
      <point x="357" y="15"/>
      <point x="326" y="66"/>
      <point x="326" y="156" type="curve" smooth="yes"/>
      <point x="326" y="374" type="line" smooth="yes"/>
      <point x="326" y="499"/>
      <point x="266" y="556"/>
      <point x="190" y="556" type="curve" smooth="yes"/>
      <point x="106" y="556"/>
      <point x="53" y="488"/>
      <point x="53" y="404" type="curve" smooth="yes"/>
      <point x="53" y="385" type="line"/>
      <point x="133" y="340" type="line"/>
      <point x="133" y="337" type="line"/>
      <point x="94" y="324"/>
      <point x="63" y="292"/>
      <point x="63" y="212" type="curve" smooth="yes"/>
      <point x="63" y="88" type="line" smooth="yes"/>
      <point x="63" y="20"/>
      <point x="94" y="-7"/>
    </contour>
  </outline>
</glyph>
<glyph name="doDek-thai" format="2">
  <advance width="426"/>
  <unicode hex="0E14"/>
  <anchor x="362" y="0" name="bottom"/>
  <anchor x="355" y="536" name="top"/>
  <outline>
    <contour>
      <point x="187" y="-10" type="curve" smooth="yes"/>
      <point x="203" y="-10"/>
      <point x="218" y="-7"/>
      <point x="229" y="-1" type="curve"/>
      <point x="225" y="22" type="line"/>
      <point x="217" y="18"/>
      <point x="203" y="15"/>
      <point x="192" y="15" type="curve" smooth="yes"/>
      <point x="100" y="15"/>
      <point x="77" y="121"/>
      <point x="77" y="269" type="curve" smooth="yes"/>
      <point x="77" y="477"/>
      <point x="132" y="531"/>
      <point x="215" y="531" type="curve" smooth="yes"/>
      <point x="299" y="531"/>
      <point x="336" y="472"/>
      <point x="336" y="379" type="curve" smooth="yes"/>
      <point x="336" y="0" type="line"/>
      <point x="362" y="0" type="line"/>
      <point x="362" y="382" type="line" smooth="yes"/>
      <point x="362" y="498"/>
      <point x="308" y="556"/>
      <point x="213" y="556" type="curve" smooth="yes"/>
      <point x="121" y="556"/>
      <point x="50" y="506"/>
      <point x="50" y="270" type="curve" smooth="yes"/>
      <point x="50" y="91"/>
      <point x="85" y="-10"/>
    </contour>
  </outline>
</glyph>
<glyph name="toTao-thai" format="2">
  <advance width="437"/>
  <unicode hex="0E15"/>
  <note>
uni0E15
</note>
  <anchor x="373" y="0" name="bottom"/>
  <anchor x="366" y="536" name="top"/>
  <outline>
    <contour>
      <point x="191" y="-10" type="curve" smooth="yes"/>
      <point x="208" y="-10"/>
      <point x="227" y="-5"/>
      <point x="237" y="1" type="curve"/>
      <point x="233" y="23" type="line"/>
      <point x="223" y="19"/>
      <point x="209" y="15"/>
      <point x="194" y="15" type="curve" smooth="yes"/>
      <point x="102" y="15"/>
      <point x="77" y="103"/>
      <point x="77" y="283" type="curve" smooth="yes"/>
      <point x="77" y="459"/>
      <point x="104" y="531"/>
      <point x="153" y="531" type="curve" smooth="yes"/>
      <point x="184" y="531"/>
      <point x="205" y="508"/>
      <point x="210" y="460" type="curve"/>
      <point x="230" y="460" type="line"/>
      <point x="236" y="504"/>
      <point x="251" y="531"/>
      <point x="287" y="531" type="curve" smooth="yes"/>
      <point x="326" y="531"/>
      <point x="347" y="502"/>
      <point x="347" y="429" type="curve" smooth="yes"/>
      <point x="347" y="0" type="line"/>
      <point x="373" y="0" type="line"/>
      <point x="373" y="427" type="line" smooth="yes"/>
      <point x="373" y="513"/>
      <point x="345" y="556"/>
      <point x="290" y="556" type="curve" smooth="yes"/>
      <point x="253" y="556"/>
      <point x="231" y="528"/>
      <point x="222" y="503" type="curve"/>
      <point x="219" y="503" type="line"/>
      <point x="211" y="528"/>
      <point x="191" y="556"/>
      <point x="151" y="556" type="curve" smooth="yes"/>
      <point x="91" y="556"/>
      <point x="51" y="490"/>
      <point x="51" y="281" type="curve" smooth="yes"/>
      <point x="51" y="92"/>
      <point x="83" y="-10"/>
    </contour>
  </outline>
</glyph>
<glyph name="thoThung-thai" format="2">
  <advance width="407"/>
  <unicode hex="0E16"/>
  <anchor x="343" y="0" name="bottom"/>
  <anchor x="336" y="536" name="top"/>
  <outline>
    <contour>
      <point x="135" y="-7" type="curve" smooth="yes"/>
      <point x="150" y="-7"/>
      <point x="164" y="-3"/>
      <point x="178" y="5" type="curve"/>
      <point x="173" y="28" type="line"/>
      <point x="163" y="22"/>
      <point x="149" y="17"/>
      <point x="137" y="17" type="curve" smooth="yes"/>
      <point x="107" y="17"/>
      <point x="89" y="40"/>
      <point x="89" y="89" type="curve" smooth="yes"/>
      <point x="89" y="213" type="line" smooth="yes"/>
      <point x="89" y="285"/>
      <point x="119" y="313"/>
      <point x="155" y="319" type="curve"/>
      <point x="160" y="350" type="line"/>
      <point x="80" y="401" type="line"/>
      <point x="80" y="473"/>
      <point x="125" y="531"/>
      <point x="198" y="531" type="curve" smooth="yes"/>
      <point x="269" y="531"/>
      <point x="317" y="478"/>
      <point x="317" y="368" type="curve" smooth="yes"/>
      <point x="317" y="0" type="line"/>
      <point x="343" y="0" type="line"/>
      <point x="343" y="374" type="line" smooth="yes"/>
      <point x="343" y="492"/>
      <point x="282" y="556"/>
      <point x="199" y="556" type="curve" smooth="yes"/>
      <point x="106" y="556"/>
      <point x="53" y="481"/>
      <point x="53" y="404" type="curve" smooth="yes"/>
      <point x="53" y="385" type="line"/>
      <point x="133" y="340" type="line"/>
      <point x="133" y="337" type="line"/>
      <point x="94" y="324"/>
      <point x="63" y="292"/>
      <point x="63" y="212" type="curve" smooth="yes"/>
      <point x="63" y="88" type="line" smooth="yes"/>
      <point x="63" y="20"/>
      <point x="94" y="-7"/>
    </contour>
  </outline>
</glyph>
<glyph name="thoThahan-thai" format="2">
  <advance width="425"/>
  <unicode hex="0E17"/>
  <anchor x="361" y="0" name="bottom"/>
  <anchor x="354" y="536" name="top"/>
  <outline>
    <contour>
      <point x="71" y="0" type="line"/>
      <point x="97" y="0" type="line"/>
      <point x="97" y="342" type="line" smooth="yes"/>
      <point x="97" y="453"/>
      <point x="148" y="531"/>
      <point x="226" y="531" type="curve" smooth="yes"/>
      <point x="294" y="531"/>
      <point x="335" y="478"/>
      <point x="335" y="380" type="curve" smooth="yes"/>
      <point x="335" y="0" type="line"/>
      <point x="361" y="0" type="line"/>
      <point x="361" y="383" type="line" smooth="yes"/>
      <point x="361" y="500"/>
      <point x="304" y="556"/>
      <point x="231" y="556" type="curve" smooth="yes"/>
      <point x="168" y="556"/>
      <point x="121" y="520"/>
      <point x="99" y="456" type="curve"/>
      <point x="96" y="456" type="line"/>
      <point x="91" y="548" type="line"/>
      <point x="71" y="548" type="line"/>
    </contour>
  </outline>
</glyph>
<glyph name="thoThong-thai" format="2">
  <advance width="369"/>
  <unicode hex="0E18"/>
  <anchor x="274" y="0" name="bottom"/>
  <anchor x="318" y="536" name="top"/>
  <outline>
    <contour>
      <point x="186" y="-10" type="curve" smooth="yes"/>
      <point x="273" y="-10"/>
      <point x="328" y="31"/>
      <point x="328" y="149" type="curve" smooth="yes"/>
      <point x="328" y="262"/>
      <point x="272" y="288"/>
      <point x="190" y="329" type="curve" smooth="yes"/>
      <point x="119" y="365"/>
      <point x="78" y="386"/>
      <point x="78" y="447" type="curve" smooth="yes"/>
      <point x="78" y="513"/>
      <point x="125" y="532"/>
      <point x="177" y="532" type="curve" smooth="yes"/>
      <point x="232" y="532"/>
      <point x="284" y="512"/>
      <point x="308" y="494" type="curve"/>
      <point x="308" y="522" type="line"/>
      <point x="287" y="536"/>
      <point x="242" y="556"/>
      <point x="181" y="556" type="curve" smooth="yes"/>
      <point x="93" y="556"/>
      <point x="52" y="518"/>
      <point x="52" y="444" type="curve" smooth="yes"/>
      <point x="52" y="379"/>
      <point x="85" y="350"/>
      <point x="168" y="311" type="curve" smooth="yes"/>
      <point x="245" y="275"/>
      <point x="302" y="258"/>
      <point x="302" y="149" type="curve" smooth="yes"/>
      <point x="302" y="47"/>
      <point x="250" y="15"/>
      <point x="188" y="15" type="curve" smooth="yes"/>
      <point x="150" y="15"/>
      <point x="105" y="27"/>
      <point x="87" y="40" type="curve"/>
      <point x="87" y="255" type="line"/>
      <point x="61" y="255" type="line"/>
      <point x="61" y="20" type="line"/>
      <point x="91" y="3"/>
      <point x="137" y="-10"/>
    </contour>
  </outline>
</glyph>
<glyph name="noNu-thai" format="2">
  <advance width="422"/>
  <unicode hex="0E19"/>
  <note>
uni0E19
</note>
  <anchor x="350" y="0" name="bottom"/>
  <anchor x="350" y="536" name="top"/>
  <outline>
    <contour>
      <point x="196" y="-10" type="curve" smooth="yes"/>
      <point x="257" y="-10"/>
      <point x="299" y="31"/>
      <point x="322" y="93" type="curve"/>
      <point x="325" y="93" type="line"/>
      <point x="327" y="0" type="line"/>
      <point x="350" y="0" type="line"/>
      <point x="350" y="548" type="line"/>
      <point x="324" y="548" type="line"/>
      <point x="324" y="206" type="line" smooth="yes"/>
      <point x="324" y="89"/>
      <point x="274" y="15"/>
      <point x="198" y="15" type="curve" smooth="yes"/>
      <point x="130" y="15"/>
      <point x="90" y="69"/>
      <point x="90" y="168" type="curve" smooth="yes"/>
      <point x="90" y="548" type="line"/>
      <point x="64" y="548" type="line"/>
      <point x="64" y="165" type="line" smooth="yes"/>
      <point x="64" y="46"/>
      <point x="119" y="-10"/>
    </contour>
  </outline>
</glyph>
<glyph name="boBaimai-thai" format="2">
  <advance width="416"/>
  <unicode hex="0E1A"/>
  <note>
uni0E1A
</note>
  <guideline x="243" y="355" angle="0"/>
  <anchor x="338" y="0" name="bottom"/>
  <anchor x="352" y="536" name="top"/>
  <outline>
    <contour>
      <point x="208" y="-10" type="curve" smooth="yes"/>
      <point x="308" y="-10"/>
      <point x="352" y="67"/>
      <point x="352" y="174" type="curve" smooth="yes"/>
      <point x="352" y="548" type="line"/>
      <point x="326" y="548" type="line"/>
      <point x="326" y="177" type="line" smooth="yes"/>
      <point x="326" y="76"/>
      <point x="287" y="15"/>
      <point x="208" y="15" type="curve" smooth="yes"/>
      <point x="129" y="15"/>
      <point x="90" y="76"/>
      <point x="90" y="177" type="curve" smooth="yes"/>
      <point x="90" y="548" type="line"/>
      <point x="64" y="548" type="line"/>
      <point x="64" y="174" type="line" smooth="yes"/>
      <point x="64" y="67"/>
      <point x="108" y="-10"/>
    </contour>
  </outline>
</glyph>
<glyph name="phoPhung-thai" format="2">
  <advance width="450"/>
  <unicode hex="0E1C"/>
  <anchor x="378" y="0" name="bottom"/>
  <anchor x="378" y="536" name="top"/>
  <outline>
    <contour>
      <point x="67" y="0" type="line"/>
      <point x="89" y="0" type="line"/>
      <point x="221" y="328" type="line"/>
      <point x="224" y="328" type="line"/>
      <point x="356" y="0" type="line"/>
      <point x="378" y="0" type="line"/>
      <point x="378" y="548" type="line"/>
      <point x="352" y="548" type="line"/>
      <point x="352" y="209" type="line" smooth="yes"/>
      <point x="352" y="167"/>
      <point x="353" y="112"/>
      <point x="359" y="45" type="curve"/>
      <point x="357" y="45" type="line"/>
      <point x="336" y="108"/>
      <point x="320" y="148"/>
      <point x="302" y="193" type="curve" smooth="yes"/>
      <point x="231" y="367" type="line"/>
      <point x="214" y="367" type="line"/>
      <point x="143" y="193" type="line" smooth="yes"/>
      <point x="125" y="148"/>
      <point x="109" y="108"/>
      <point x="88" y="45" type="curve"/>
      <point x="86" y="45" type="line"/>
      <point x="92" y="112"/>
      <point x="93" y="167"/>
      <point x="93" y="209" type="curve" smooth="yes"/>
      <point x="93" y="461" type="line" smooth="yes"/>
      <point x="93" y="518"/>
      <point x="111" y="531"/>
      <point x="138" y="531" type="curve" smooth="yes"/>
      <point x="149" y="531"/>
      <point x="163" y="527"/>
      <point x="172" y="523" type="curve"/>
      <point x="175" y="545" type="line"/>
      <point x="166" y="550"/>
      <point x="149" y="556"/>
      <point x="134" y="556" type="curve" smooth="yes"/>
      <point x="102" y="556"/>
      <point x="67" y="535"/>
      <point x="67" y="465" type="curve" smooth="yes"/>
    </contour>
  </outline>
</glyph>
<glyph name="foFan-thai" format="2">
  <advance width="471"/>
  <unicode hex="0E1F"/>
  <anchor x="369" y="0" name="bottom"/>
  <anchor x="355" y="536" name="top"/>
  <outline>
    <contour>
      <point x="105" y="0" type="line"/>
      <point x="130" y="0" type="line"/>
      <point x="212" y="370" type="line" smooth="yes"/>
      <point x="220" y="404"/>
      <point x="229" y="446"/>
      <point x="235" y="489" type="curve"/>
      <point x="238" y="489" type="line"/>
      <point x="245" y="446"/>
      <point x="252" y="404"/>
      <point x="260" y="370" type="curve" smooth="yes"/>
      <point x="342" y="0" type="line"/>
      <point x="369" y="0" type="line"/>
      <point x="449" y="745" type="line"/>
      <point x="425" y="745" type="line"/>
      <point x="372" y="214" type="line" smooth="yes"/>
      <point x="369" y="184"/>
      <point x="361" y="118"/>
      <point x="356" y="47" type="curve"/>
      <point x="353" y="47" type="line"/>
      <point x="340" y="119"/>
      <point x="322" y="201"/>
      <point x="314" y="237" type="curve" smooth="yes"/>
      <point x="245" y="548" type="line"/>
      <point x="228" y="548" type="line"/>
      <point x="159" y="237" type="line" smooth="yes"/>
      <point x="151" y="201"/>
      <point x="134" y="119"/>
      <point x="121" y="47" type="curve"/>
      <point x="118" y="47" type="line"/>
      <point x="112" y="118"/>
      <point x="105" y="184"/>
      <point x="101" y="214" type="curve" smooth="yes"/>
      <point x="61" y="548" type="line"/>
      <point x="37" y="548" type="line"/>
    </contour>
  </outline>
</glyph>
<glyph name="phoSamphao-thai" format="2">
  <advance width="407"/>
  <unicode hex="0E20"/>
  <anchor x="343" y="0" name="bottom"/>
  <anchor x="336" y="536" name="top"/>
  <outline>
    <contour>
      <point x="52" y="-7" type="curve" smooth="yes"/>
      <point x="76" y="-7"/>
      <point x="94" y="10"/>
      <point x="94" y="59" type="curve" smooth="yes"/>
      <point x="94" y="213" type="line" smooth="yes"/>
      <point x="94" y="285"/>
      <point x="119" y="313"/>
      <point x="156" y="319" type="curve"/>
      <point x="160" y="350" type="line"/>
      <point x="80" y="401" type="line"/>
      <point x="80" y="473"/>
      <point x="125" y="531"/>
      <point x="199" y="531" type="curve" smooth="yes"/>
      <point x="269" y="531"/>
      <point x="317" y="478"/>
      <point x="317" y="368" type="curve" smooth="yes"/>
      <point x="317" y="0" type="line"/>
      <point x="343" y="0" type="line"/>
      <point x="343" y="374" type="line" smooth="yes"/>
      <point x="343" y="492"/>
      <point x="283" y="556"/>
      <point x="199" y="556" type="curve" smooth="yes"/>
      <point x="106" y="556"/>
      <point x="53" y="481"/>
      <point x="53" y="404" type="curve" smooth="yes"/>
      <point x="53" y="385" type="line"/>
      <point x="134" y="340" type="line"/>
      <point x="133" y="337" type="line"/>
      <point x="94" y="324"/>
      <point x="68" y="292"/>
      <point x="68" y="212" type="curve" smooth="yes"/>
      <point x="68" y="64" type="line" smooth="yes"/>
      <point x="68" y="32"/>
      <point x="64" y="18"/>
      <point x="47" y="18" type="curve" smooth="yes"/>
      <point x="39" y="18"/>
      <point x="32" y="21"/>
      <point x="25" y="25" type="curve"/>
      <point x="20" y="2" type="line"/>
      <point x="30" y="-4"/>
      <point x="42" y="-7"/>
    </contour>
  </outline>
</glyph>
<glyph name="moMa-thai" format="2">
  <advance width="426"/>
  <unicode hex="0E21"/>
  <note>
uni0E21
</note>
  <anchor x="348" y="0" name="bottom"/>
  <anchor x="362" y="536" name="top"/>
  <outline>
    <contour>
      <point x="234" y="-10" type="curve" smooth="yes"/>
      <point x="307" y="-10"/>
      <point x="362" y="46"/>
      <point x="362" y="165" type="curve" smooth="yes"/>
      <point x="362" y="548" type="line"/>
      <point x="336" y="548" type="line"/>
      <point x="336" y="168" type="line" smooth="yes"/>
      <point x="336" y="68"/>
      <point x="297" y="15"/>
      <point x="229" y="15" type="curve" smooth="yes"/>
      <point x="152" y="15"/>
      <point x="98" y="98"/>
      <point x="98" y="206" type="curve" smooth="yes"/>
      <point x="98" y="548" type="line"/>
      <point x="72" y="548" type="line"/>
      <point x="72" y="0" type="line"/>
      <point x="95" y="0" type="line"/>
      <point x="97" y="99" type="line"/>
      <point x="100" y="99" type="line"/>
      <point x="123" y="35"/>
      <point x="166" y="-10"/>
    </contour>
  </outline>
</glyph>
<glyph name="yoYak-thai" format="2">
  <advance width="409"/>
  <unicode hex="0E22"/>
  <note>
uni0E22
</note>
  <anchor x="331" y="0" name="bottom"/>
  <anchor x="345" y="536" name="top"/>
  <outline>
    <contour>
      <point x="202" y="-9" type="curve" smooth="yes"/>
      <point x="293" y="-9"/>
      <point x="345" y="48"/>
      <point x="345" y="178" type="curve" smooth="yes"/>
      <point x="345" y="548" type="line"/>
      <point x="319" y="548" type="line"/>
      <point x="319" y="172" type="line" smooth="yes"/>
      <point x="319" y="55"/>
      <point x="272" y="16"/>
      <point x="202" y="16" type="curve" smooth="yes"/>
      <point x="129" y="16"/>
      <point x="84" y="60"/>
      <point x="84" y="160" type="curve" smooth="yes"/>
      <point x="84" y="242"/>
      <point x="118" y="288"/>
      <point x="175" y="288" type="curve" smooth="yes"/>
      <point x="199" y="288" type="line"/>
      <point x="199" y="310" type="line"/>
      <point x="175" y="310" type="line" smooth="yes"/>
      <point x="133" y="310"/>
      <point x="82" y="335"/>
      <point x="82" y="425" type="curve" smooth="yes"/>
      <point x="82" y="499"/>
      <point x="114" y="530"/>
      <point x="159" y="530" type="curve" smooth="yes"/>
      <point x="177" y="530"/>
      <point x="197" y="525"/>
      <point x="207" y="520" type="curve"/>
      <point x="212" y="543" type="line"/>
      <point x="198" y="550"/>
      <point x="177" y="555"/>
      <point x="154" y="555" type="curve" smooth="yes"/>
      <point x="93" y="555"/>
      <point x="55" y="507"/>
      <point x="55" y="429" type="curve" smooth="yes"/>
      <point x="55" y="337"/>
      <point x="93" y="315"/>
      <point x="119" y="300" type="curve"/>
      <point x="119" y="296" type="line"/>
      <point x="91" y="279"/>
      <point x="57" y="251"/>
      <point x="57" y="156" type="curve" smooth="yes"/>
      <point x="57" y="59"/>
      <point x="103" y="-9"/>
    </contour>
  </outline>
</glyph>
<glyph name="roRua-thai" format="2">
  <advance width="332"/>
  <unicode hex="0E23"/>
  <note>
uni0E23
</note>
  <anchor x="262" y="0" name="bottom"/>
  <anchor x="297" y="536" name="top"/>
  <outline>
    <contour>
      <point x="164" y="-10" type="curve" smooth="yes"/>
      <point x="255" y="-10"/>
      <point x="298" y="41"/>
      <point x="298" y="132" type="curve" smooth="yes"/>
      <point x="298" y="228"/>
      <point x="247" y="259"/>
      <point x="184" y="293" type="curve" smooth="yes"/>
      <point x="118" y="329"/>
      <point x="65" y="355"/>
      <point x="65" y="433" type="curve" smooth="yes"/>
      <point x="65" y="495"/>
      <point x="100" y="532"/>
      <point x="164" y="532" type="curve" smooth="yes"/>
      <point x="208" y="532"/>
      <point x="255" y="515"/>
      <point x="278" y="498" type="curve"/>
      <point x="278" y="524" type="line"/>
      <point x="257" y="540"/>
      <point x="211" y="556"/>
      <point x="165" y="556" type="curve" smooth="yes"/>
      <point x="81" y="556"/>
      <point x="39" y="508"/>
      <point x="39" y="430" type="curve" smooth="yes"/>
      <point x="39" y="345"/>
      <point x="88" y="314"/>
      <point x="168" y="273" type="curve" smooth="yes"/>
      <point x="225" y="244"/>
      <point x="272" y="216"/>
      <point x="272" y="131" type="curve" smooth="yes"/>
      <point x="272" y="54"/>
      <point x="229" y="14"/>
      <point x="167" y="14" type="curve" smooth="yes"/>
      <point x="121" y="14"/>
      <point x="75" y="33"/>
      <point x="44" y="52" type="curve"/>
      <point x="36" y="27" type="line"/>
      <point x="68" y="8"/>
      <point x="113" y="-10"/>
    </contour>
  </outline>
</glyph>
<glyph name="ru-thai" format="2">
  <advance width="407"/>
  <unicode hex="0E24"/>
  <anchor x="343" y="-174" name="bottom"/>
  <anchor x="335" y="536" name="top"/>
  <outline>
    <contour>
      <point x="317" y="-190" type="line"/>
      <point x="343" y="-190" type="line"/>
      <point x="343" y="100" type="line"/>
      <point x="317" y="100" type="line"/>
    </contour>
    <component base="thoThung-thai"/>
  </outline>
</glyph>
<glyph name="loLing-thai" format="2">
  <advance width="394"/>
  <unicode hex="0E25"/>
  <anchor x="330" y="0" name="bottom"/>
  <anchor x="328" y="536" name="top"/>
  <outline>
    <contour>
      <point x="304" y="0" type="line"/>
      <point x="330" y="0" type="line"/>
      <point x="330" y="392" type="line" smooth="yes"/>
      <point x="330" y="496"/>
      <point x="284" y="556"/>
      <point x="198" y="556" type="curve" smooth="yes"/>
      <point x="140" y="556"/>
      <point x="96" y="534"/>
      <point x="70" y="517" type="curve"/>
      <point x="70" y="487" type="line"/>
      <point x="106" y="514"/>
      <point x="149" y="531"/>
      <point x="195" y="531" type="curve" smooth="yes"/>
      <point x="270" y="531"/>
      <point x="304" y="479"/>
      <point x="304" y="388" type="curve" smooth="yes"/>
    </contour>
    <contour>
      <point x="160" y="-10" type="curve" smooth="yes"/>
      <point x="176" y="-10"/>
      <point x="197" y="-5"/>
      <point x="207" y="0" type="curve"/>
      <point x="203" y="23" type="line"/>
      <point x="191" y="18"/>
      <point x="177" y="15"/>
      <point x="160" y="15" type="curve" smooth="yes"/>
      <point x="104" y="15"/>
      <point x="67" y="57"/>
      <point x="67" y="139" type="curve" smooth="yes"/>
      <point x="67" y="240"/>
      <point x="114" y="282"/>
      <point x="220" y="290" type="curve" smooth="yes"/>
      <point x="310" y="297" type="line"/>
      <point x="310" y="322" type="line"/>
      <point x="213" y="315" type="line" smooth="yes"/>
      <point x="92" y="306"/>
      <point x="40" y="250"/>
      <point x="40" y="138" type="curve" smooth="yes"/>
      <point x="40" y="54"/>
      <point x="76" y="-10"/>
    </contour>
  </outline>
</glyph>
<glyph name="lu-thai" format="2">
  <advance width="407"/>
  <unicode hex="0E26"/>
  <anchor x="343" y="-174" name="bottom"/>
  <anchor x="342" y="536" name="top"/>
  <outline>
    <contour>
      <point x="317" y="-190" type="line"/>
      <point x="343" y="-190" type="line"/>
      <point x="343" y="100" type="line"/>
      <point x="317" y="100" type="line"/>
    </contour>
    <component base="phoSamphao-thai"/>
  </outline>
</glyph>
<glyph name="woWaen-thai" format="2">
  <advance width="340"/>
  <unicode hex="0E27"/>
  <anchor x="227" y="0" name="bottom"/>
  <anchor x="284" y="534" name="top"/>
  <outline>
    <contour>
      <point x="137" y="-10" type="curve" smooth="yes"/>
      <point x="232" y="-10"/>
      <point x="289" y="82"/>
      <point x="289" y="275" type="curve" smooth="yes"/>
      <point x="289" y="463"/>
      <point x="239" y="556"/>
      <point x="121" y="556" type="curve" smooth="yes"/>
      <point x="90" y="556"/>
      <point x="57" y="548"/>
      <point x="31" y="529" type="curve"/>
      <point x="31" y="503" type="line"/>
      <point x="55" y="521"/>
      <point x="87" y="531"/>
      <point x="116" y="531" type="curve" smooth="yes"/>
      <point x="217" y="531"/>
      <point x="262" y="453"/>
      <point x="262" y="275" type="curve" smooth="yes"/>
      <point x="262" y="94"/>
      <point x="210" y="15"/>
      <point x="132" y="15" type="curve" smooth="yes"/>
      <point x="98" y="15"/>
      <point x="69" y="30"/>
      <point x="46" y="51" type="curve"/>
      <point x="35" y="26" type="line"/>
      <point x="68" y="0"/>
      <point x="100" y="-10"/>
    </contour>
  </outline>
</glyph>
<glyph name="soSala-thai" format="2">
  <advance width="434"/>
  <unicode hex="0E28"/>
  <anchor x="358" y="0" name="bottom"/>
  <anchor x="355" y="536" name="top"/>
  <outline>
    <contour>
      <point x="64" y="0" type="line"/>
      <point x="90" y="0" type="line"/>
      <point x="90" y="136" type="line" smooth="yes"/>
      <point x="90" y="222"/>
      <point x="130" y="271"/>
      <point x="201" y="271" type="curve" smooth="yes"/>
      <point x="235" y="271" type="line"/>
      <point x="235" y="296" type="line"/>
      <point x="200" y="296" type="line" smooth="yes"/>
      <point x="143" y="296"/>
      <point x="111" y="264"/>
      <point x="92" y="228" type="curve"/>
      <point x="90" y="229" type="line"/>
      <point x="90" y="367" type="line" smooth="yes"/>
      <point x="90" y="475"/>
      <point x="136" y="531"/>
      <point x="212" y="531" type="curve" smooth="yes"/>
      <point x="288" y="531"/>
      <point x="333" y="475"/>
      <point x="333" y="367" type="curve" smooth="yes"/>
      <point x="333" y="0" type="line"/>
      <point x="359" y="0" type="line"/>
      <point x="359" y="369" type="line" smooth="yes"/>
      <point x="359" y="423"/>
      <point x="348" y="465"/>
      <point x="324" y="495" type="curve"/>
      <point x="301" y="535"/>
      <point x="262" y="556"/>
      <point x="212" y="556" type="curve" smooth="yes"/>
      <point x="118" y="556"/>
      <point x="64" y="491"/>
      <point x="64" y="369" type="curve" smooth="yes"/>
    </contour>
    <contour>
      <point x="316" y="479" type="line"/>
      <point x="357" y="493"/>
      <point x="388" y="528"/>
      <point x="388" y="584" type="curve"/>
      <point x="361" y="584" type="line"/>
      <point x="361" y="533"/>
      <point x="334" y="509"/>
      <point x="301" y="498" type="curve"/>
    </contour>
  </outline>
</glyph>
<glyph name="soRusi-thai" format="2">
  <advance width="441"/>
  <unicode hex="0E29"/>
  <anchor x="347" y="0" name="bottom"/>
  <anchor x="362" y="536" name="top"/>
  <outline>
    <contour>
      <point x="213" y="-10" type="curve" smooth="yes"/>
      <point x="318" y="-10"/>
      <point x="362" y="75"/>
      <point x="362" y="179" type="curve" smooth="yes"/>
      <point x="362" y="548" type="line"/>
      <point x="336" y="548" type="line"/>
      <point x="336" y="182" type="line" smooth="yes"/>
      <point x="336" y="76"/>
      <point x="297" y="15"/>
      <point x="213" y="15" type="curve" smooth="yes"/>
      <point x="129" y="15"/>
      <point x="90" y="76"/>
      <point x="90" y="182" type="curve" smooth="yes"/>
      <point x="90" y="548" type="line"/>
      <point x="64" y="548" type="line"/>
      <point x="64" y="179" type="line" smooth="yes"/>
      <point x="64" y="75"/>
      <point x="108" y="-10"/>
    </contour>
    <contour>
      <point x="250" y="259" type="curve" smooth="yes"/>
      <point x="407" y="259" type="line"/>
      <point x="407" y="282" type="line"/>
      <point x="252" y="282" type="line" smooth="yes"/>
      <point x="229" y="282"/>
      <point x="221" y="292"/>
      <point x="221" y="316" type="curve" smooth="yes"/>
      <point x="221" y="325"/>
      <point x="223" y="336"/>
      <point x="225" y="342" type="curve"/>
      <point x="203" y="349" type="line"/>
      <point x="199" y="341"/>
      <point x="196" y="327"/>
      <point x="196" y="311" type="curve" smooth="yes"/>
      <point x="196" y="276"/>
      <point x="213" y="259"/>
    </contour>
  </outline>
</glyph>
<glyph name="soSua-thai" format="2">
  <advance width="393"/>
  <unicode hex="0E2A"/>
  <note>
uni0E2A
</note>
  <anchor x="330" y="0" name="bottom"/>
  <anchor x="335" y="536" name="top"/>
  <outline>
    <contour>
      <point x="304" y="0" type="line"/>
      <point x="330" y="0" type="line"/>
      <point x="330" y="392" type="line" smooth="yes"/>
      <point x="330" y="436"/>
      <point x="321" y="473"/>
      <point x="301" y="499" type="curve"/>
      <point x="281" y="535"/>
      <point x="248" y="556"/>
      <point x="196" y="556" type="curve" smooth="yes"/>
      <point x="141" y="556"/>
      <point x="96" y="534"/>
      <point x="70" y="517" type="curve"/>
      <point x="70" y="487" type="line"/>
      <point x="106" y="514"/>
      <point x="149" y="531"/>
      <point x="195" y="531" type="curve" smooth="yes"/>
      <point x="270" y="531"/>
      <point x="304" y="479"/>
      <point x="304" y="388" type="curve" smooth="yes"/>
    </contour>
    <contour>
      <point x="156" y="-10" type="curve" smooth="yes"/>
      <point x="178" y="-10"/>
      <point x="197" y="-5"/>
      <point x="208" y="0" type="curve"/>
      <point x="203" y="23" type="line"/>
      <point x="191" y="18"/>
      <point x="176" y="15"/>
      <point x="160" y="15" type="curve" smooth="yes"/>
      <point x="104" y="15"/>
      <point x="67" y="56"/>
      <point x="67" y="141" type="curve" smooth="yes"/>
      <point x="67" y="241"/>
      <point x="117" y="282"/>
      <point x="220" y="290" type="curve" smooth="yes"/>
      <point x="310" y="297" type="line"/>
      <point x="310" y="322" type="line"/>
      <point x="213" y="315" type="line" smooth="yes"/>
      <point x="97" y="307"/>
      <point x="40" y="253"/>
      <point x="40" y="141" type="curve" smooth="yes"/>
      <point x="40" y="54"/>
      <point x="77" y="-10"/>
    </contour>
    <contour>
      <point x="297" y="484" type="line"/>
      <point x="333" y="501"/>
      <point x="359" y="534"/>
      <point x="359" y="584" type="curve"/>
      <point x="332" y="584" type="line"/>
      <point x="332" y="538"/>
      <point x="310" y="514"/>
      <point x="282" y="502" type="curve"/>
    </contour>
  </outline>
</glyph>
<glyph name="loChula-thai" format="2">
  <advance width="449"/>
  <unicode hex="0E2C"/>
  <anchor x="358" y="0" name="bottom"/>
  <outline>
    <contour>
      <point x="95" y="0" type="line"/>
      <point x="120" y="0" type="line"/>
      <point x="203" y="310" type="line" smooth="yes"/>
      <point x="210" y="335"/>
      <point x="219" y="374"/>
      <point x="225" y="419" type="curve"/>
      <point x="228" y="419" type="line"/>
      <point x="235" y="374"/>
      <point x="243" y="340"/>
      <point x="251" y="310" type="curve" smooth="yes"/>
      <point x="333" y="0" type="line"/>
      <point x="359" y="0" type="line"/>
      <point x="403" y="417" type="line" smooth="yes"/>
      <point x="410" y="486"/>
      <point x="402" y="536"/>
      <point x="367" y="561" type="curve"/>
      <point x="367" y="564" type="line"/>
      <point x="417" y="584"/>
      <point x="439" y="621"/>
      <point x="439" y="703" type="curve" smooth="yes"/>
      <point x="439" y="714" type="line"/>
      <point x="412" y="714" type="line"/>
      <point x="412" y="703" type="line" smooth="yes"/>
      <point x="412" y="624"/>
      <point x="387" y="582"/>
      <point x="324" y="582" type="curve" smooth="yes"/>
      <point x="264" y="582" type="line"/>
      <point x="264" y="560" type="line"/>
      <point x="297" y="560" type="line" smooth="yes"/>
      <point x="366" y="560"/>
      <point x="389" y="512"/>
      <point x="379" y="408" type="curve" smooth="yes"/>
      <point x="359" y="208" type="line" smooth="yes"/>
      <point x="355" y="167"/>
      <point x="348" y="111"/>
      <point x="345" y="46" type="curve"/>
      <point x="342" y="46" type="line"/>
      <point x="330" y="99"/>
      <point x="316" y="159"/>
      <point x="296" y="233" type="curve" smooth="yes"/>
      <point x="235" y="457" type="line"/>
      <point x="217" y="457" type="line"/>
      <point x="158" y="233" type="line" smooth="yes"/>
      <point x="140" y="163"/>
      <point x="146" y="186"/>
      <point x="112" y="46" type="curve"/>
      <point x="109" y="46" type="line"/>
      <point x="106" y="110"/>
      <point x="100" y="158"/>
      <point x="95" y="208" type="curve" smooth="yes"/>
      <point x="61" y="548" type="line"/>
      <point x="37" y="548" type="line"/>
    </contour>
  </outline>
</glyph>
<glyph name="oAng-thai" format="2">
  <advance width="396"/>
  <unicode hex="0E2D"/>
  <note>
uni0E2D
</note>
  <anchor x="286" y="0" name="bottom"/>
  <anchor x="328" y="536" name="top"/>
  <outline>
    <contour>
      <point x="190" y="-10" type="curve" smooth="yes"/>
      <point x="302" y="-10"/>
      <point x="345" y="82"/>
      <point x="345" y="271" type="curve" smooth="yes"/>
      <point x="345" y="452"/>
      <point x="301" y="556"/>
      <point x="185" y="556" type="curve" smooth="yes"/>
      <point x="134" y="556"/>
      <point x="87" y="536"/>
      <point x="60" y="518" type="curve"/>
      <point x="60" y="489" type="line"/>
      <point x="95" y="514"/>
      <point x="139" y="531"/>
      <point x="183" y="531" type="curve" smooth="yes"/>
      <point x="284" y="531"/>
      <point x="319" y="431"/>
      <point x="319" y="272" type="curve" smooth="yes"/>
      <point x="319" y="87"/>
      <point x="275" y="14"/>
      <point x="191" y="14" type="curve" smooth="yes"/>
      <point x="108" y="14"/>
      <point x="76" y="85"/>
      <point x="76" y="225" type="curve" smooth="yes"/>
      <point x="76" y="276" type="line"/>
      <point x="181" y="276" type="line"/>
      <point x="181" y="299" type="line"/>
      <point x="52" y="299" type="line"/>
      <point x="51" y="281"/>
      <point x="50" y="246"/>
      <point x="50" y="225" type="curve" smooth="yes"/>
      <point x="50" y="63"/>
      <point x="93" y="-10"/>
    </contour>
  </outline>
</glyph>
<glyph name="hoNokhuk-thai" format="2">
  <advance width="387"/>
  <unicode hex="0E2E"/>
  <anchor x="288" y="0" name="bottom"/>
  <anchor x="322" y="536" name="top"/>
  <outline>
    <contour>
      <point x="190" y="-10" type="curve" smooth="yes"/>
      <point x="302" y="-10"/>
      <point x="345" y="82"/>
      <point x="345" y="270" type="curve" smooth="yes"/>
      <point x="345" y="371"/>
      <point x="332" y="449"/>
      <point x="299" y="496" type="curve" smooth="yes"/>
      <point x="272" y="534"/>
      <point x="235" y="556"/>
      <point x="185" y="556" type="curve" smooth="yes"/>
      <point x="133" y="556"/>
      <point x="87" y="536"/>
      <point x="60" y="518" type="curve"/>
      <point x="60" y="489" type="line"/>
      <point x="95" y="514"/>
      <point x="139" y="531"/>
      <point x="183" y="531" type="curve" smooth="yes"/>
      <point x="284" y="531"/>
      <point x="319" y="431"/>
      <point x="319" y="272" type="curve" smooth="yes"/>
      <point x="319" y="87"/>
      <point x="275" y="14"/>
      <point x="191" y="14" type="curve" smooth="yes"/>
      <point x="108" y="14"/>
      <point x="76" y="85"/>
      <point x="76" y="225" type="curve" smooth="yes"/>
      <point x="76" y="276" type="line"/>
      <point x="181" y="276" type="line"/>
      <point x="181" y="299" type="line"/>
      <point x="52" y="299" type="line"/>
      <point x="51" y="281"/>
      <point x="50" y="246"/>
      <point x="50" y="225" type="curve" smooth="yes"/>
      <point x="50" y="63"/>
      <point x="93" y="-10"/>
    </contour>
    <contour>
      <point x="292" y="481" type="line"/>
      <point x="331" y="496"/>
      <point x="361" y="530"/>
      <point x="361" y="584" type="curve"/>
      <point x="334" y="584" type="line"/>
      <point x="334" y="535"/>
      <point x="308" y="511"/>
      <point x="278" y="500" type="curve"/>
    </contour>
  </outline>
</glyph>
<glyph name="paiyannoi-thai" format="2">
  <advance width="360"/>
  <unicode hex="0E2F"/>
  <outline>
    <contour>
      <point x="252" y="-1" type="line"/>
      <point x="278" y="-1" type="line"/>
      <point x="278" y="548" type="line"/>
      <point x="252" y="548" type="line"/>
      <point x="252" y="432" type="line" smooth="yes"/>
      <point x="252" y="335"/>
      <point x="220" y="275"/>
      <point x="147" y="275" type="curve" smooth="yes"/>
      <point x="82" y="275"/>
      <point x="49" y="326"/>
      <point x="49" y="415" type="curve" smooth="yes"/>
      <point x="49" y="498"/>
      <point x="80" y="531"/>
      <point x="120" y="531" type="curve" smooth="yes"/>
      <point x="130" y="531"/>
      <point x="143" y="528"/>
      <point x="152" y="522" type="curve"/>
      <point x="157" y="546" type="line"/>
      <point x="143" y="554"/>
      <point x="129" y="556"/>
      <point x="117" y="556" type="curve" smooth="yes"/>
      <point x="60" y="556"/>
      <point x="22" y="509"/>
      <point x="22" y="420" type="curve" smooth="yes"/>
      <point x="22" y="317"/>
      <point x="63" y="252"/>
      <point x="143" y="252" type="curve" smooth="yes"/>
      <point x="206" y="252"/>
      <point x="238" y="279"/>
      <point x="259" y="340" type="curve"/>
      <point x="252" y="345" type="line"/>
    </contour>
  </outline>
</glyph>
<glyph name="maiHanaKat-thai" format="2">
  <unicode hex="0E31"/>
  <anchor x="-71" y="536" name="_top"/>
  <anchor x="-84" y="714" name="top"/>
  <outline>
    <contour>
      <point x="-169" y="636" type="curve" smooth="yes"/>
      <point x="24" y="636" type="line"/>
      <point x="24" y="660" type="line"/>
      <point x="-167" y="660" type="line" smooth="yes"/>
      <point x="-187" y="660"/>
      <point x="-195" y="672"/>
      <point x="-195" y="693" type="curve" smooth="yes"/>
      <point x="-195" y="704"/>
      <point x="-192" y="718"/>
      <point x="-190" y="726" type="curve"/>
      <point x="-213" y="730" type="line"/>
      <point x="-217" y="720"/>
      <point x="-220" y="702"/>
      <point x="-220" y="689" type="curve" smooth="yes"/>
      <point x="-220" y="659"/>
      <point x="-205" y="636"/>
    </contour>
  </outline>
</glyph>
<glyph name="saraAa-thai" format="2">
  <advance width="287"/>
  <unicode hex="0E32"/>
  <outline>
    <contour>
      <point x="197" y="0" type="line"/>
      <point x="223" y="0" type="line"/>
      <point x="223" y="417" type="line" smooth="yes"/>
      <point x="223" y="505"/>
      <point x="189" y="556"/>
      <point x="119" y="556" type="curve" smooth="yes"/>
      <point x="77" y="556"/>
      <point x="41" y="537"/>
      <point x="20" y="523" type="curve"/>
      <point x="20" y="494" type="line"/>
      <point x="48" y="515"/>
      <point x="85" y="531"/>
      <point x="115" y="531" type="curve" smooth="yes"/>
      <point x="173" y="531"/>
      <point x="197" y="489"/>
      <point x="197" y="408" type="curve" smooth="yes"/>
    </contour>
  </outline>
</glyph>
<glyph name="saraI-thai" format="2">
  <unicode hex="0E34"/>
  <anchor x="-71" y="536" name="_top"/>
  <anchor x="-71" y="713" name="top"/>
  <outline>
    <contour>
      <point x="-350" y="636" type="line"/>
      <point x="-71" y="636" type="line"/>
      <point x="-71" y="660" type="line"/>
      <point x="-325" y="660" type="line"/>
      <point x="-350" y="650" type="line"/>
    </contour>
  </outline>
</glyph>
<glyph name="saraIi-thai" format="2">
  <unicode hex="0E35"/>
  <anchor x="-71" y="536" name="_top"/>
  <anchor x="-71" y="772" name="top"/>
  <outline>
    <contour>
      <point x="-350" y="636" type="line"/>
      <point x="-71" y="636" type="line"/>
      <point x="-71" y="660" type="line"/>
      <point x="-325" y="660" type="line"/>
      <point x="-350" y="650" type="line"/>
    </contour>
    <contour>
      <point x="-96" y="654" type="line"/>
      <point x="-71" y="654" type="line"/>
      <point x="-71" y="756" type="line"/>
      <point x="-96" y="756" type="line"/>
    </contour>
  </outline>
</glyph>
<glyph name="saraUe-thai" format="2">
  <unicode hex="0E36"/>
  <anchor x="-71" y="536" name="_top"/>
  <anchor x="-97" y="772" name="top"/>
  <outline>
    <contour>
      <point x="-350" y="636" type="line"/>
      <point x="-118" y="636" type="line" smooth="yes"/>
      <point x="-88" y="636"/>
      <point x="-65" y="657"/>
      <point x="-65" y="700" type="curve" smooth="yes"/>
      <point x="-65" y="743"/>
      <point x="-87" y="764"/>
      <point x="-116" y="764" type="curve" smooth="yes"/>
      <point x="-145" y="764"/>
      <point x="-167" y="744"/>
      <point x="-167" y="701" type="curve" smooth="yes"/>
      <point x="-167" y="679"/>
      <point x="-160" y="657"/>
      <point x="-148" y="647" type="curve"/>
      <point x="-145" y="660" type="line"/>
      <point x="-325" y="660" type="line"/>
      <point x="-350" y="650" type="line"/>
    </contour>
    <contour>
      <point x="-116" y="660" type="curve" smooth="yes"/>
      <point x="-133" y="660"/>
      <point x="-145" y="675"/>
      <point x="-145" y="700" type="curve" smooth="yes"/>
      <point x="-145" y="725"/>
      <point x="-133" y="740"/>
      <point x="-116" y="740" type="curve" smooth="yes"/>
      <point x="-99" y="740"/>
      <point x="-87" y="725"/>
      <point x="-87" y="700" type="curve" smooth="yes"/>
      <point x="-87" y="675"/>
      <point x="-99" y="660"/>
    </contour>
  </outline>
</glyph>
<glyph name="saraUee-thai" format="2">
  <unicode hex="0E37"/>
  <anchor x="-71" y="536" name="_top"/>
  <anchor x="-101" y="772" name="top"/>
  <outline>
    <contour>
      <point x="-350" y="636" type="line"/>
      <point x="-71" y="636" type="line"/>
      <point x="-71" y="660" type="line"/>
      <point x="-325" y="660" type="line"/>
      <point x="-350" y="650" type="line"/>
    </contour>
    <contour>
      <point x="-160" y="654" type="line"/>
      <point x="-138" y="654" type="line"/>
      <point x="-138" y="743" type="line"/>
      <point x="-160" y="743" type="line"/>
    </contour>
    <contour>
      <point x="-94" y="654" type="line"/>
      <point x="-71" y="654" type="line"/>
      <point x="-71" y="743" type="line"/>
      <point x="-94" y="743" type="line"/>
    </contour>
  </outline>
</glyph>
<glyph name="saraU-thai" format="2">
  <unicode hex="0E38"/>
  <anchor x="-72" y="0" name="_bottom"/>
  <anchor x="-72" y="-271" name="bottom"/>
  <outline>
    <contour>
      <point x="-97" y="-261" type="line"/>
      <point x="-72" y="-261" type="line"/>
      <point x="-72" y="-108" type="line" smooth="yes"/>
      <point x="-72" y="-88"/>
      <point x="-83" y="-74"/>
      <point x="-102" y="-74" type="curve" smooth="yes"/>
      <point x="-109" y="-74"/>
      <point x="-119" y="-75"/>
      <point x="-128" y="-80" type="curve"/>
      <point x="-125" y="-102" type="line"/>
      <point x="-121" y="-100"/>
      <point x="-115" y="-98"/>
      <point x="-111" y="-98" type="curve" smooth="yes"/>
      <point x="-100" y="-98"/>
      <point x="-97" y="-105"/>
      <point x="-97" y="-122" type="curve" smooth="yes"/>
    </contour>
  </outline>
</glyph>
<glyph name="saraUu-thai" format="2">
  <unicode hex="0E39"/>
  <anchor x="-71" y="0" name="_bottom"/>
  <anchor x="-71" y="-265" name="bottom"/>
  <outline>
    <contour>
      <point x="-142" y="-261" type="curve" smooth="yes"/>
      <point x="-95" y="-261"/>
      <point x="-71" y="-225"/>
      <point x="-71" y="-169" type="curve" smooth="yes"/>
      <point x="-71" y="-77" type="line"/>
      <point x="-96" y="-77" type="line"/>
      <point x="-96" y="-173" type="line" smooth="yes"/>
      <point x="-96" y="-212"/>
      <point x="-110" y="-238"/>
      <point x="-142" y="-238" type="curve" smooth="yes"/>
      <point x="-173" y="-238"/>
      <point x="-187" y="-212"/>
      <point x="-187" y="-173" type="curve" smooth="yes"/>
      <point x="-187" y="-112" type="line" smooth="yes"/>
      <point x="-187" y="-86"/>
      <point x="-198" y="-74"/>
      <point x="-217" y="-74" type="curve" smooth="yes"/>
      <point x="-223" y="-74"/>
      <point x="-233" y="-76"/>
      <point x="-239" y="-79" type="curve"/>
      <point x="-236" y="-102" type="line"/>
      <point x="-220" y="-94"/>
      <point x="-212" y="-99"/>
      <point x="-212" y="-116" type="curve" smooth="yes"/>
      <point x="-212" y="-171" type="line" smooth="yes"/>
      <point x="-212" y="-225"/>
      <point x="-188" y="-261"/>
    </contour>
  </outline>
</glyph>
<glyph name="saraE-thai" format="2">
  <advance width="191"/>
  <unicode hex="0E40"/>
  <outline>
    <contour>
      <point x="132" y="-10" type="curve" smooth="yes"/>
      <point x="144" y="-10"/>
      <point x="159" y="-6"/>
      <point x="171" y="1" type="curve"/>
      <point x="166" y="24" type="line"/>
      <point x="158" y="19"/>
      <point x="145" y="14"/>
      <point x="135" y="14" type="curve" smooth="yes"/>
      <point x="115" y="14"/>
      <point x="103" y="29"/>
      <point x="103" y="65" type="curve" smooth="yes"/>
      <point x="103" y="548" type="line"/>
      <point x="77" y="548" type="line"/>
      <point x="77" y="60" type="line" smooth="yes"/>
      <point x="77" y="11"/>
      <point x="103" y="-10"/>
    </contour>
  </outline>
</glyph>
<glyph name="saraO-thai" format="2">
  <advance width="205"/>
  <unicode hex="0E42"/>
  <outline>
    <contour>
      <point x="83" y="448" type="line"/>
      <point x="109" y="448" type="line"/>
      <point x="109" y="661" type="line" smooth="yes"/>
      <point x="109" y="724"/>
      <point x="97" y="753"/>
      <point x="74" y="776" type="curve"/>
      <point x="74" y="780" type="line"/>
      <point x="215" y="780" type="line"/>
      <point x="215" y="805" type="line"/>
      <point x="43" y="805" type="line"/>
      <point x="15" y="791" type="line"/>
      <point x="15" y="780" type="line"/>
      <point x="58" y="780"/>
      <point x="83" y="739"/>
      <point x="83" y="674" type="curve" smooth="yes"/>
    </contour>
    <component base="saraE-thai" xOffset="6"/>
  </outline>
</glyph>
<glyph name="saraAiMaimuan-thai" format="2">
  <advance width="186"/>
  <unicode hex="0E43"/>
  <outline>
    <contour>
      <point x="121" y="-10" type="curve" smooth="yes"/>
      <point x="133" y="-10"/>
      <point x="148" y="-6"/>
      <point x="160" y="1" type="curve"/>
      <point x="155" y="24" type="line"/>
      <point x="147" y="19"/>
      <point x="135" y="14"/>
      <point x="124" y="14" type="curve" smooth="yes"/>
      <point x="105" y="14"/>
      <point x="92" y="29"/>
      <point x="92" y="65" type="curve" smooth="yes"/>
      <point x="92" y="473" type="line" smooth="yes"/>
      <point x="92" y="518"/>
      <point x="104" y="537"/>
      <point x="132" y="591" type="curve" smooth="yes"/>
      <point x="153" y="632"/>
      <point x="169" y="665"/>
      <point x="169" y="713" type="curve" smooth="yes"/>
      <point x="169" y="777"/>
      <point x="139" y="811"/>
      <point x="91" y="811" type="curve" smooth="yes"/>
      <point x="62" y="811"/>
      <point x="32" y="797"/>
      <point x="20" y="789" type="curve"/>
      <point x="20" y="762" type="line"/>
      <point x="35" y="772"/>
      <point x="63" y="786"/>
      <point x="89" y="786" type="curve" smooth="yes"/>
      <point x="122" y="786"/>
      <point x="144" y="764"/>
      <point x="144" y="711" type="curve" smooth="yes"/>
      <point x="144" y="672"/>
      <point x="132" y="648"/>
      <point x="110" y="606" type="curve" smooth="yes"/>
      <point x="81" y="552"/>
      <point x="66" y="530"/>
      <point x="66" y="477" type="curve" smooth="yes"/>
      <point x="66" y="60" type="line" smooth="yes"/>
      <point x="66" y="11"/>
      <point x="93" y="-10"/>
    </contour>
  </outline>
</glyph>
<glyph name="saraAiMaimalai-thai" format="2">
  <advance width="184"/>
  <unicode hex="0E44"/>
  <outline>
    <contour>
      <point x="71" y="448" type="line"/>
      <point x="97" y="448" type="line"/>
      <point x="97" y="674" type="line" smooth="yes"/>
      <point x="97" y="744"/>
      <point x="118" y="780"/>
      <point x="159" y="783" type="curve"/>
      <point x="159" y="805" type="line"/>
      <point x="8" y="805" type="line"/>
      <point x="1" y="780" type="line"/>
      <point x="103" y="780" type="line"/>
      <point x="104" y="777" type="line"/>
      <point x="83" y="754"/>
      <point x="71" y="734"/>
      <point x="71" y="661" type="curve" smooth="yes"/>
    </contour>
    <component base="saraE-thai" xOffset="-6"/>
  </outline>
</glyph>
<glyph name="lakkhangyao-thai" format="2">
  <advance width="287"/>
  <unicode hex="0E45"/>
  <outline>
    <contour>
      <point x="197" y="-190" type="line"/>
      <point x="223" y="-190" type="line"/>
      <point x="223" y="100" type="line"/>
      <point x="197" y="100" type="line"/>
    </contour>
    <component base="saraAa-thai"/>
  </outline>
</glyph>
<glyph name="maiyamok-thai" format="2">
  <advance width="409"/>
  <unicode hex="0E46"/>
  <outline>
    <contour>
      <point x="320" y="-190" type="line"/>
      <point x="345" y="-190" type="line"/>
      <point x="345" y="451" type="line" smooth="yes"/>
      <point x="345" y="522"/>
      <point x="313" y="556"/>
      <point x="275" y="556" type="curve" smooth="yes"/>
      <point x="228" y="556"/>
      <point x="216" y="524"/>
      <point x="207" y="489" type="curve"/>
      <point x="205" y="489" type="line"/>
      <point x="196" y="524"/>
      <point x="179" y="556"/>
      <point x="139" y="556" type="curve" smooth="yes"/>
      <point x="93" y="556"/>
      <point x="62" y="511"/>
      <point x="62" y="400" type="curve" smooth="yes"/>
      <point x="62" y="293"/>
      <point x="84" y="237"/>
      <point x="140" y="237" type="curve" smooth="yes"/>
      <point x="153" y="237"/>
      <point x="165" y="238"/>
      <point x="179" y="247" type="curve"/>
      <point x="173" y="270" type="line"/>
      <point x="164" y="264"/>
      <point x="154" y="262"/>
      <point x="144" y="262" type="curve" smooth="yes"/>
      <point x="106" y="262"/>
      <point x="88" y="297"/>
      <point x="88" y="402" type="curve" smooth="yes"/>
      <point x="88" y="492"/>
      <point x="108" y="531"/>
      <point x="143" y="531" type="curve" smooth="yes"/>
      <point x="174" y="531"/>
      <point x="194" y="495"/>
      <point x="194" y="440" type="curve" smooth="yes"/>
      <point x="194" y="399" type="line"/>
      <point x="218" y="399" type="line"/>
      <point x="218" y="440" type="line" smooth="yes"/>
      <point x="218" y="495"/>
      <point x="237" y="531"/>
      <point x="269" y="531" type="curve" smooth="yes"/>
      <point x="300" y="531"/>
      <point x="320" y="504"/>
      <point x="320" y="440" type="curve" smooth="yes"/>
    </contour>
  </outline>
</glyph>
<glyph name="maitaikhu-thai" format="2">
  <unicode hex="0E47"/>
  <anchor x="-72" y="536" name="_top"/>
  <anchor x="-161" y="845" name="top"/>
  <outline>
    <contour>
      <point x="-128" y="626" type="curve" smooth="yes"/>
      <point x="-98" y="626"/>
      <point x="-73" y="650"/>
      <point x="-73" y="699" type="curve" smooth="yes"/>
      <point x="-73" y="713" type="line"/>
      <point x="-96" y="713" type="line"/>
      <point x="-96" y="699" type="line" smooth="yes"/>
      <point x="-96" y="669"/>
      <point x="-109" y="651"/>
      <point x="-131" y="651" type="curve" smooth="yes"/>
      <point x="-156" y="651"/>
      <point x="-172" y="674"/>
      <point x="-179" y="713" type="curve"/>
      <point x="-191" y="713" type="line"/>
      <point x="-236" y="654" type="line"/>
      <point x="-264" y="654"/>
      <point x="-282" y="681"/>
      <point x="-282" y="726" type="curve" smooth="yes"/>
      <point x="-282" y="782"/>
      <point x="-259" y="807"/>
      <point x="-228" y="807" type="curve" smooth="yes"/>
      <point x="-74" y="807" type="line"/>
      <point x="-74" y="832" type="line"/>
      <point x="-234" y="832" type="line" smooth="yes"/>
      <point x="-273" y="832"/>
      <point x="-306" y="795"/>
      <point x="-306" y="730" type="curve" smooth="yes"/>
      <point x="-306" y="665"/>
      <point x="-277" y="629"/>
      <point x="-230" y="629" type="curve"/>
      <point x="-190" y="684" type="line"/>
      <point x="-178" y="648"/>
      <point x="-158" y="626"/>
    </contour>
  </outline>
</glyph>
<glyph name="maiEk-thai" format="2">
  <unicode hex="0E48"/>
  <anchor x="-72" y="536" name="_top"/>
  <anchor x="-72" y="845" name="top"/>
  <outline>
    <contour>
      <point x="-98" y="636" type="line"/>
      <point x="-72" y="636" type="line"/>
      <point x="-72" y="827" type="line"/>
      <point x="-98" y="827" type="line"/>
    </contour>
  </outline>
</glyph>
<glyph name="maiTho-thai" format="2">
  <unicode hex="0E49"/>
  <anchor x="-72" y="536" name="_top"/>
  <anchor x="-131" y="845" name="top"/>
  <outline>
    <contour>
      <point x="-241" y="636" type="line"/>
      <point x="-48" y="636" type="line"/>
      <point x="-48" y="660" type="line"/>
      <point x="-178" y="660" type="line"/>
      <point x="-177" y="663" type="line"/>
      <point x="-158" y="681"/>
      <point x="-141" y="714"/>
      <point x="-141" y="748" type="curve" smooth="yes"/>
      <point x="-141" y="793"/>
      <point x="-161" y="821"/>
      <point x="-195" y="821" type="curve" smooth="yes"/>
      <point x="-208" y="821"/>
      <point x="-225" y="816"/>
      <point x="-242" y="803" type="curve"/>
      <point x="-235" y="782" type="line"/>
      <point x="-224" y="790"/>
      <point x="-211" y="798"/>
      <point x="-200" y="798" type="curve" smooth="yes"/>
      <point x="-177" y="798"/>
      <point x="-166" y="778"/>
      <point x="-166" y="748" type="curve" smooth="yes"/>
      <point x="-166" y="700"/>
      <point x="-201" y="664"/>
      <point x="-241" y="653" type="curve"/>
    </contour>
  </outline>
</glyph>
<glyph name="maiTri-thai" format="2">
  <unicode hex="0E4A"/>
  <anchor x="-72" y="536" name="_top"/>
  <anchor x="-164" y="845" name="top"/>
  <outline>
    <contour>
      <point x="-226" y="631" type="curve" smooth="yes"/>
      <point x="-214" y="631"/>
      <point x="-204" y="634"/>
      <point x="-199" y="638" type="curve"/>
      <point x="-204" y="659" type="line"/>
      <point x="-209" y="656"/>
      <point x="-216" y="654"/>
      <point x="-221" y="654" type="curve" smooth="yes"/>
      <point x="-246" y="654"/>
      <point x="-264" y="677"/>
      <point x="-264" y="721" type="curve" smooth="yes"/>
      <point x="-264" y="771"/>
      <point x="-245" y="789"/>
      <point x="-226" y="792" type="curve"/>
      <point x="-193" y="761" type="line"/>
      <point x="-186" y="761" type="line"/>
      <point x="-153" y="792" type="line"/>
      <point x="-134" y="784"/>
      <point x="-115" y="767"/>
      <point x="-115" y="720" type="curve" smooth="yes"/>
      <point x="-115" y="689"/>
      <point x="-129" y="661"/>
      <point x="-151" y="651" type="curve"/>
      <point x="-151" y="636" type="line"/>
      <point x="-46" y="636" type="line"/>
      <point x="-46" y="657" type="line"/>
      <point x="-110" y="657" type="line"/>
      <point x="-110" y="661" type="line"/>
      <point x="-97" y="677"/>
      <point x="-91" y="700"/>
      <point x="-91" y="726" type="curve" smooth="yes"/>
      <point x="-91" y="774"/>
      <point x="-114" y="806"/>
      <point x="-152" y="819" type="curve"/>
      <point x="-190" y="782" type="line"/>
      <point x="-227" y="819" type="line"/>
      <point x="-263" y="813"/>
      <point x="-288" y="779"/>
      <point x="-288" y="722" type="curve" smooth="yes"/>
      <point x="-288" y="664"/>
      <point x="-262" y="631"/>
    </contour>
  </outline>
</glyph>
<glyph name="maiChattawa-thai" format="2">
  <unicode hex="0E4B"/>
  <anchor x="-71" y="536" name="_top"/>
  <anchor x="-128" y="845" name="top"/>
  <outline>
    <contour>
      <point x="-153" y="636" type="line"/>
      <point x="-129" y="636" type="line"/>
      <point x="-129" y="827" type="line"/>
      <point x="-153" y="827" type="line"/>
    </contour>
    <contour>
      <point x="-212" y="718" type="line"/>
      <point x="-70" y="718" type="line"/>
      <point x="-70" y="741" type="line"/>
      <point x="-212" y="741" type="line"/>
    </contour>
  </outline>
</glyph>
<glyph name="thanthakhat-thai" format="2">
  <unicode hex="0E4C"/>
  <anchor x="-72" y="536" name="_top"/>
  <anchor x="-97" y="771" name="top"/>
  <outline>
    <contour>
      <point x="-193" y="635" type="curve"/>
      <point x="-170" y="640" type="line"/>
      <point x="-174" y="649"/>
      <point x="-176" y="660"/>
      <point x="-176" y="670" type="curve" smooth="yes"/>
      <point x="-176" y="691"/>
      <point x="-168" y="703"/>
      <point x="-146" y="703" type="curve" smooth="yes"/>
      <point x="-48" y="703" type="line"/>
      <point x="-48" y="727" type="line"/>
      <point x="-152" y="727" type="line" smooth="yes"/>
      <point x="-185" y="727"/>
      <point x="-201" y="707"/>
      <point x="-201" y="675" type="curve" smooth="yes"/>
      <point x="-201" y="660"/>
      <point x="-198" y="646"/>
    </contour>
  </outline>
</glyph>
<glyph name="nikhahit-thai" format="2">
  <unicode hex="0E4D"/>
  <anchor x="-71" y="536" name="_top"/>
  <anchor x="-82" y="782" name="top"/>
  <outline>
    <contour>
      <point x="-99" y="620" type="curve" smooth="yes"/>
      <point x="-63" y="620"/>
      <point x="-36" y="647"/>
      <point x="-36" y="701" type="curve" smooth="yes"/>
      <point x="-36" y="755"/>
      <point x="-63" y="782"/>
      <point x="-99" y="782" type="curve" smooth="yes"/>
      <point x="-134" y="782"/>
      <point x="-162" y="755"/>
      <point x="-162" y="701" type="curve" smooth="yes"/>
      <point x="-162" y="647"/>
      <point x="-134" y="620"/>
    </contour>
    <contour>
      <point x="-99" y="642" type="curve" smooth="yes"/>
      <point x="-125" y="642"/>
      <point x="-140" y="665"/>
      <point x="-140" y="701" type="curve" smooth="yes"/>
      <point x="-140" y="737"/>
      <point x="-125" y="760"/>
      <point x="-99" y="760" type="curve" smooth="yes"/>
      <point x="-73" y="760"/>
      <point x="-57" y="737"/>
      <point x="-57" y="701" type="curve" smooth="yes"/>
      <point x="-57" y="665"/>
      <point x="-73" y="642"/>
    </contour>
  </outline>
</glyph>
<glyph name="yamakkan-thai" format="2">
  <unicode hex="0E4E"/>
  <anchor x="-71" y="536" name="_top"/>
  <anchor x="-75" y="771" name="top"/>
  <outline>
    <contour>
      <point x="-171" y="614" type="curve"/>
      <point x="-150" y="618" type="line"/>
      <point x="-153" y="626"/>
      <point x="-156" y="637"/>
      <point x="-156" y="646" type="curve" smooth="yes"/>
      <point x="-156" y="669"/>
      <point x="-147" y="684"/>
      <point x="-127" y="684" type="curve" smooth="yes"/>
      <point x="-118" y="684"/>
      <point x="-108" y="676"/>
      <point x="-100" y="668" type="curve"/>
      <point x="-83" y="685" type="line"/>
      <point x="-87" y="694"/>
      <point x="-89" y="703"/>
      <point x="-89" y="711" type="curve" smooth="yes"/>
      <point x="-89" y="736"/>
      <point x="-78" y="744"/>
      <point x="-62" y="744" type="curve" smooth="yes"/>
      <point x="-57" y="744"/>
      <point x="-49" y="743"/>
      <point x="-40" y="740" type="curve"/>
      <point x="-40" y="760" type="line"/>
      <point x="-47" y="765"/>
      <point x="-58" y="768"/>
      <point x="-69" y="768" type="curve" smooth="yes"/>
      <point x="-91" y="768"/>
      <point x="-110" y="750"/>
      <point x="-110" y="719" type="curve" smooth="yes"/>
      <point x="-110" y="712"/>
      <point x="-109" y="704"/>
      <point x="-106" y="698" type="curve"/>
      <point x="-105" y="696" type="line"/>
      <point x="-112" y="702"/>
      <point x="-122" y="706"/>
      <point x="-134" y="706" type="curve" smooth="yes"/>
      <point x="-155" y="706"/>
      <point x="-178" y="690"/>
      <point x="-178" y="649" type="curve" smooth="yes"/>
      <point x="-178" y="638"/>
      <point x="-175" y="623"/>
    </contour>
  </outline>
</glyph>
<glyph name="fongman-thai" format="2">
  <advance width="400"/>
  <unicode hex="0E4F"/>
  <outline>
    <contour>
      <point x="200" y="0" type="curve" smooth="yes"/>
      <point x="301" y="0"/>
      <point x="352" y="82"/>
      <point x="352" y="228" type="curve" smooth="yes"/>
      <point x="352" y="380"/>
      <point x="301" y="455"/>
      <point x="200" y="455" type="curve" smooth="yes"/>
      <point x="99" y="455"/>
      <point x="48" y="380"/>
      <point x="48" y="228" type="curve" smooth="yes"/>
      <point x="48" y="82"/>
      <point x="99" y="0"/>
    </contour>
    <contour>
      <point x="200" y="25" type="curve" smooth="yes"/>
      <point x="116" y="25"/>
      <point x="75" y="98"/>
      <point x="75" y="228" type="curve" smooth="yes"/>
      <point x="75" y="365"/>
      <point x="116" y="430"/>
      <point x="200" y="430" type="curve" smooth="yes"/>
      <point x="283" y="430"/>
      <point x="325" y="365"/>
      <point x="325" y="228" type="curve" smooth="yes"/>
      <point x="325" y="98"/>
      <point x="283" y="25"/>
    </contour>
    <contour>
      <point x="200" y="136" type="curve" smooth="yes"/>
      <point x="237" y="136"/>
      <point x="256" y="173"/>
      <point x="256" y="228" type="curve" smooth="yes"/>
      <point x="256" y="286"/>
      <point x="237" y="319"/>
      <point x="200" y="319" type="curve" smooth="yes"/>
      <point x="162" y="319"/>
      <point x="144" y="286"/>
      <point x="144" y="228" type="curve" smooth="yes"/>
      <point x="144" y="173"/>
      <point x="162" y="136"/>
    </contour>
  </outline>
</glyph>
<glyph name="one-thai" format="2">
  <advance width="378"/>
  <unicode hex="0E51"/>
  <outline>
    <contour>
      <point x="186" y="-10" type="curve" smooth="yes"/>
      <point x="287" y="-10"/>
      <point x="330" y="92"/>
      <point x="330" y="235" type="curve" smooth="yes"/>
      <point x="330" y="390"/>
      <point x="280" y="463"/>
      <point x="183" y="463" type="curve" smooth="yes"/>
      <point x="98" y="463"/>
      <point x="44" y="405"/>
      <point x="44" y="294" type="curve" smooth="yes"/>
      <point x="44" y="201"/>
      <point x="80" y="149"/>
      <point x="137" y="149" type="curve" smooth="yes"/>
      <point x="146" y="149"/>
      <point x="159" y="150"/>
      <point x="168" y="156" type="curve"/>
      <point x="164" y="178" type="line"/>
      <point x="158" y="175"/>
      <point x="150" y="173"/>
      <point x="141" y="173" type="curve" smooth="yes"/>
      <point x="96" y="173"/>
      <point x="70" y="220"/>
      <point x="70" y="295" type="curve" smooth="yes"/>
      <point x="70" y="390"/>
      <point x="112" y="438"/>
      <point x="182" y="438" type="curve" smooth="yes"/>
      <point x="258" y="438"/>
      <point x="303" y="380"/>
      <point x="303" y="233" type="curve" smooth="yes"/>
      <point x="303" y="105"/>
      <point x="268" y="15"/>
      <point x="182" y="15" type="curve" smooth="yes"/>
      <point x="163" y="15"/>
      <point x="149" y="20"/>
      <point x="139" y="25" type="curve"/>
      <point x="139" y="0" type="line"/>
      <point x="150" y="-6"/>
      <point x="166" y="-10"/>
    </contour>
  </outline>
</glyph>
<glyph name="five-thai" format="2">
  <advance width="375"/>
  <unicode hex="0E55"/>
  <outline>
    <contour>
      <point x="183" y="0" type="curve" smooth="yes"/>
      <point x="338" y="0" type="line"/>
      <point x="338" y="24" type="line"/>
      <point x="303" y="24" type="line" smooth="yes"/>
      <point x="271" y="24"/>
      <point x="243" y="76"/>
      <point x="243" y="145" type="curve" smooth="yes"/>
      <point x="243" y="212"/>
      <point x="261" y="236"/>
      <point x="285" y="236" type="curve" smooth="yes"/>
      <point x="289" y="236"/>
      <point x="296" y="235"/>
      <point x="302" y="232" type="curve"/>
      <point x="309" y="254" type="line"/>
      <point x="302" y="258"/>
      <point x="292" y="260"/>
      <point x="282" y="260" type="curve" smooth="yes"/>
      <point x="248" y="260"/>
      <point x="219" y="231"/>
      <point x="219" y="153" type="curve" smooth="yes"/>
      <point x="219" y="95"/>
      <point x="232" y="47"/>
      <point x="264" y="15" type="curve"/>
      <point x="266" y="25" type="line"/>
      <point x="187" y="25" type="line" smooth="yes"/>
      <point x="107" y="25"/>
      <point x="74" y="82"/>
      <point x="74" y="233" type="curve" smooth="yes"/>
      <point x="74" y="371"/>
      <point x="113" y="433"/>
      <point x="174" y="433" type="curve" smooth="yes"/>
      <point x="219" y="433" type="line" smooth="yes"/>
      <point x="288" y="433"/>
      <point x="316" y="463"/>
      <point x="316" y="542" type="curve" smooth="yes"/>
      <point x="316" y="584" type="line"/>
      <point x="292" y="584" type="line"/>
      <point x="292" y="546" type="line" smooth="yes"/>
      <point x="292" y="474"/>
      <point x="271" y="457"/>
      <point x="209" y="456" type="curve"/>
      <point x="210" y="449" type="line"/>
      <point x="228" y="462"/>
      <point x="237" y="484"/>
      <point x="237" y="511" type="curve" smooth="yes"/>
      <point x="237" y="556"/>
      <point x="215" y="584"/>
      <point x="180" y="584" type="curve" smooth="yes"/>
      <point x="147" y="584"/>
      <point x="124" y="559"/>
      <point x="124" y="511" type="curve" smooth="yes"/>
      <point x="124" y="485"/>
      <point x="135" y="461"/>
      <point x="151" y="450" type="curve"/>
      <point x="150" y="455" type="line"/>
      <point x="96" y="443"/>
      <point x="48" y="390"/>
      <point x="48" y="236" type="curve" smooth="yes"/>
      <point x="48" y="65"/>
      <point x="92" y="0"/>
    </contour>
    <contour>
      <point x="180" y="457" type="curve" smooth="yes"/>
      <point x="156" y="457"/>
      <point x="145" y="480"/>
      <point x="145" y="509" type="curve" smooth="yes"/>
      <point x="145" y="538"/>
      <point x="156" y="561"/>
      <point x="180" y="561" type="curve" smooth="yes"/>
      <point x="205" y="561"/>
      <point x="216" y="538"/>
      <point x="216" y="509" type="curve" smooth="yes"/>
      <point x="216" y="480"/>
      <point x="205" y="457"/>
    </contour>
  </outline>
</glyph>
<glyph name="six-thai" format="2">
  <advance width="374"/>
  <unicode hex="0E56"/>
  <outline>
    <contour>
      <point x="189" y="-10" type="curve" smooth="yes"/>
      <point x="275" y="-10"/>
      <point x="326" y="55"/>
      <point x="326" y="227" type="curve" smooth="yes"/>
      <point x="326" y="390"/>
      <point x="280" y="463"/>
      <point x="194" y="463" type="curve" smooth="yes"/>
      <point x="151" y="463"/>
      <point x="112" y="444"/>
      <point x="88" y="387" type="curve"/>
      <point x="97" y="383" type="line"/>
      <point x="58" y="584" type="line"/>
      <point x="32" y="584" type="line"/>
      <point x="79" y="351" type="line"/>
      <point x="95" y="351" type="line"/>
      <point x="113" y="413"/>
      <point x="145" y="438"/>
      <point x="191" y="438" type="curve" smooth="yes"/>
      <point x="265" y="438"/>
      <point x="300" y="370"/>
      <point x="300" y="230" type="curve" smooth="yes"/>
      <point x="300" y="80"/>
      <point x="261" y="15"/>
      <point x="188" y="15" type="curve" smooth="yes"/>
      <point x="143" y="15"/>
      <point x="114" y="39"/>
      <point x="91" y="77" type="curve"/>
      <point x="72" y="58" type="line"/>
      <point x="101" y="14"/>
      <point x="138" y="-10"/>
    </contour>
  </outline>
</glyph>
<glyph name="eight-thai" format="2">
  <advance width="397"/>
  <unicode hex="0E58"/>
  <outline>
    <contour>
      <point x="269" y="-10" type="curve" smooth="yes"/>
      <point x="324" y="-10"/>
      <point x="351" y="46"/>
      <point x="351" y="125" type="curve" smooth="yes"/>
      <point x="351" y="196"/>
      <point x="332" y="235"/>
      <point x="299" y="264" type="curve"/>
      <point x="283" y="243" type="line"/>
      <point x="305" y="222"/>
      <point x="326" y="190"/>
      <point x="326" y="123" type="curve" smooth="yes"/>
      <point x="326" y="63"/>
      <point x="308" y="15"/>
      <point x="268" y="15" type="curve" smooth="yes"/>
      <point x="232" y="15"/>
      <point x="211" y="52"/>
      <point x="210" y="131" type="curve"/>
      <point x="189" y="131" type="line"/>
      <point x="132" y="22" type="line"/>
      <point x="105" y="28"/>
      <point x="74" y="91"/>
      <point x="74" y="229" type="curve" smooth="yes"/>
      <point x="74" y="363"/>
      <point x="103" y="434"/>
      <point x="190" y="434" type="curve" smooth="yes"/>
      <point x="247" y="434" type="line" smooth="yes"/>
      <point x="305" y="434"/>
      <point x="328" y="452"/>
      <point x="328" y="537" type="curve" smooth="yes"/>
      <point x="328" y="584" type="line"/>
      <point x="303" y="584" type="line"/>
      <point x="303" y="541" type="line" smooth="yes"/>
      <point x="303" y="469"/>
      <point x="292" y="458"/>
      <point x="234" y="458" type="curve" smooth="yes"/>
      <point x="186" y="458" type="line" smooth="yes"/>
      <point x="85" y="458"/>
      <point x="48" y="380"/>
      <point x="48" y="227" type="curve" smooth="yes"/>
      <point x="48" y="64"/>
      <point x="92" y="-4"/>
      <point x="139" y="-4" type="curve"/>
      <point x="197" y="105" type="line"/>
      <point x="190" y="105" type="line"/>
      <point x="196" y="38"/>
      <point x="220" y="-10"/>
    </contour>
  </outline>
</glyph>
<glyph name="nine-thai" format="2">
  <advance width="348"/>
  <unicode hex="0E59"/>
  <outline>
    <contour>
      <point x="149" y="-10" type="curve" smooth="yes"/>
      <point x="160" y="-10"/>
      <point x="171" y="-8"/>
      <point x="181" y="-2" type="curve"/>
      <point x="178" y="21" type="line"/>
      <point x="170" y="16"/>
      <point x="162" y="14"/>
      <point x="153" y="14" type="curve" smooth="yes"/>
      <point x="93" y="14"/>
      <point x="74" y="110"/>
      <point x="74" y="237" type="curve" smooth="yes"/>
      <point x="74" y="383"/>
      <point x="98" y="438"/>
      <point x="138" y="438" type="curve" smooth="yes"/>
      <point x="163" y="438"/>
      <point x="176" y="417"/>
      <point x="188" y="377" type="curve" smooth="yes"/>
      <point x="295" y="0" type="line"/>
      <point x="322" y="0" type="line"/>
      <point x="222" y="348" type="line" smooth="yes"/>
      <point x="204" y="408"/>
      <point x="219" y="439"/>
      <point x="248" y="439" type="curve" smooth="yes"/>
      <point x="278" y="439" type="line" smooth="yes"/>
      <point x="315" y="439"/>
      <point x="328" y="462"/>
      <point x="328" y="512" type="curve" smooth="yes"/>
      <point x="328" y="584" type="line"/>
      <point x="303" y="584" type="line"/>
      <point x="303" y="515" type="line" smooth="yes"/>
      <point x="303" y="478"/>
      <point x="299" y="463"/>
      <point x="272" y="463" type="curve" smooth="yes"/>
      <point x="244" y="463" type="line" smooth="yes"/>
      <point x="210" y="463"/>
      <point x="198" y="437"/>
      <point x="196" y="399" type="curve"/>
      <point x="202" y="401" type="line"/>
      <point x="192" y="437"/>
      <point x="175" y="463"/>
      <point x="139" y="463" type="curve" smooth="yes"/>
      <point x="84" y="463"/>
      <point x="48" y="409"/>
      <point x="48" y="237" type="curve" smooth="yes"/>
      <point x="48" y="81"/>
      <point x="77" y="-10"/>
    </contour>
  </outline>
</glyph>
<glyph name="angkhankhu-thai" format="2">
  <advance width="523"/>
  <unicode hex="0E5A"/>
  <outline>
    <contour>
      <point x="252" y="-1" type="line"/>
      <point x="278" y="-1" type="line"/>
      <point x="278" y="548" type="line"/>
      <point x="252" y="548" type="line"/>
      <point x="252" y="432" type="line" smooth="yes"/>
      <point x="252" y="335"/>
      <point x="220" y="275"/>
      <point x="148" y="275" type="curve" smooth="yes"/>
      <point x="81" y="275"/>
      <point x="49" y="326"/>
      <point x="49" y="415" type="curve" smooth="yes"/>
      <point x="49" y="498"/>
      <point x="79" y="531"/>
      <point x="121" y="531" type="curve" smooth="yes"/>
      <point x="130" y="531"/>
      <point x="143" y="528"/>
      <point x="152" y="522" type="curve"/>
      <point x="157" y="546" type="line"/>
      <point x="143" y="554"/>
      <point x="129" y="556"/>
      <point x="117" y="556" type="curve" smooth="yes"/>
      <point x="60" y="556"/>
      <point x="22" y="509"/>
      <point x="22" y="420" type="curve" smooth="yes"/>
      <point x="22" y="317"/>
      <point x="63" y="252"/>
      <point x="144" y="252" type="curve" smooth="yes"/>
      <point x="205" y="252"/>
      <point x="240" y="280"/>
      <point x="259" y="340" type="curve"/>
      <point x="252" y="345" type="line"/>
    </contour>
    <contour>
      <point x="415" y="-1" type="line"/>
      <point x="441" y="-1" type="line"/>
      <point x="441" y="548" type="line"/>
      <point x="415" y="548" type="line"/>
      <point x="415" y="437" type="line" smooth="yes"/>
      <point x="415" y="323"/>
      <point x="374" y="285"/>
      <point x="316" y="285" type="curve" smooth="yes"/>
      <point x="298" y="285"/>
      <point x="282" y="291"/>
      <point x="273" y="296" type="curve"/>
      <point x="267" y="275" type="line"/>
      <point x="281" y="267"/>
      <point x="300" y="262"/>
      <point x="319" y="262" type="curve" smooth="yes"/>
      <point x="368" y="262"/>
      <point x="407" y="287"/>
      <point x="420" y="350" type="curve"/>
      <point x="415" y="354" type="line"/>
    </contour>
  </outline>
</glyph>
<glyph name="khomut-thai" format="2">
  <advance width="558"/>
  <unicode hex="0E5B"/>
  <outline>
    <contour>
      <point x="154" y="80" type="curve" smooth="yes"/>
      <point x="259" y="80"/>
      <point x="285" y="210"/>
      <point x="288" y="282" type="curve"/>
      <point x="281" y="282" type="line"/>
      <point x="333" y="135" type="line"/>
      <point x="345" y="135" type="line"/>
      <point x="376" y="283" type="line"/>
      <point x="368" y="283" type="line"/>
      <point x="409" y="145" type="line"/>
      <point x="420" y="145" type="line"/>
      <point x="450" y="269" type="line"/>
      <point x="443" y="269" type="line"/>
      <point x="456" y="195"/>
      <point x="479" y="166"/>
      <point x="513" y="166" type="curve" smooth="yes"/>
      <point x="523" y="166"/>
      <point x="531" y="168"/>
      <point x="538" y="172" type="curve"/>
      <point x="538" y="192" type="line"/>
      <point x="532" y="188"/>
      <point x="526" y="186"/>
      <point x="517" y="186" type="curve" smooth="yes"/>
      <point x="486" y="186"/>
      <point x="474" y="205"/>
      <point x="460" y="269" type="curve" smooth="yes"/>
      <point x="453" y="300" type="line"/>
      <point x="442" y="300" type="line"/>
      <point x="410" y="170" type="line"/>
      <point x="418" y="170" type="line"/>
      <point x="379" y="308" type="line"/>
      <point x="364" y="308" type="line"/>
      <point x="334" y="163" type="line"/>
      <point x="342" y="164" type="line"/>
      <point x="286" y="316" type="line"/>
      <point x="270" y="316" type="line"/>
      <point x="270" y="198"/>
      <point x="230" y="103"/>
      <point x="155" y="103" type="curve" smooth="yes"/>
      <point x="96" y="103"/>
      <point x="59" y="157"/>
      <point x="59" y="253" type="curve" smooth="yes"/>
      <point x="59" y="328"/>
      <point x="81" y="382"/>
      <point x="128" y="382" type="curve" smooth="yes"/>
      <point x="167" y="382"/>
      <point x="189" y="345"/>
      <point x="189" y="293" type="curve" smooth="yes"/>
      <point x="189" y="271"/>
      <point x="185" y="257"/>
      <point x="179" y="243" type="curve"/>
      <point x="198" y="230" type="line"/>
      <point x="208" y="249"/>
      <point x="213" y="272"/>
      <point x="213" y="295" type="curve" smooth="yes"/>
      <point x="213" y="359"/>
      <point x="183" y="405"/>
      <point x="129" y="405" type="curve" smooth="yes"/>
      <point x="64" y="405"/>
      <point x="34" y="340"/>
      <point x="34" y="251" type="curve" smooth="yes"/>
      <point x="34" y="141"/>
      <point x="81" y="80"/>
    </contour>
  </outline>
</glyph>
<glyph name="doChada-thai.short" format="2">
  <advance width="407"/>
  <anchor x="343" y="-163" name="bottom"/>
  <anchor x="336" y="536" name="top"/>
  <outline>
    <contour>
      <point x="74" y="-163" type="line"/>
      <point x="100" y="-163" type="line"/>
      <point x="100" y="-156" type="line" smooth="yes"/>
      <point x="100" y="-104"/>
      <point x="124" y="-68"/>
      <point x="177" y="-68" type="curve" smooth="yes"/>
      <point x="235" y="-68"/>
      <point x="292" y="-122"/>
      <point x="323" y="-163" type="curve"/>
      <point x="343" y="-163" type="line"/>
      <point x="343" y="374" type="line" smooth="yes"/>
      <point x="343" y="492"/>
      <point x="283" y="556"/>
      <point x="199" y="556" type="curve" smooth="yes"/>
      <point x="106" y="556"/>
      <point x="53" y="481"/>
      <point x="53" y="404" type="curve" smooth="yes"/>
      <point x="53" y="385" type="line"/>
      <point x="134" y="340" type="line"/>
      <point x="133" y="337" type="line"/>
      <point x="94" y="324"/>
      <point x="68" y="292"/>
      <point x="68" y="212" type="curve" smooth="yes"/>
      <point x="68" y="64" type="line" smooth="yes"/>
      <point x="68" y="32"/>
      <point x="64" y="18"/>
      <point x="47" y="18" type="curve" smooth="yes"/>
      <point x="39" y="18"/>
      <point x="32" y="21"/>
      <point x="25" y="25" type="curve"/>
      <point x="20" y="2" type="line"/>
      <point x="30" y="-4"/>
      <point x="42" y="-7"/>
      <point x="51" y="-7" type="curve" smooth="yes"/>
      <point x="76" y="-7"/>
      <point x="94" y="10"/>
      <point x="94" y="59" type="curve" smooth="yes"/>
      <point x="94" y="213" type="line" smooth="yes"/>
      <point x="94" y="285"/>
      <point x="119" y="313"/>
      <point x="156" y="319" type="curve"/>
      <point x="160" y="350" type="line"/>
      <point x="80" y="401" type="line"/>
      <point x="80" y="473"/>
      <point x="125" y="531"/>
      <point x="198" y="531" type="curve" smooth="yes"/>
      <point x="269" y="531"/>
      <point x="317" y="478"/>
      <point x="317" y="368" type="curve" smooth="yes"/>
      <point x="317" y="-138" type="line"/>
      <point x="325" y="-136" type="line"/>
      <point x="277" y="-71"/>
      <point x="223" y="-43"/>
      <point x="170" y="-43" type="curve" smooth="yes"/>
      <point x="104" y="-43"/>
      <point x="74" y="-93"/>
      <point x="74" y="-149" type="curve" smooth="yes"/>
    </contour>
  </outline>
</glyph>
<glyph name="loChula-thai.short" format="2">
  <advance width="443"/>
  <anchor x="357" y="0" name="bottom"/>
  <anchor x="362" y="536" name="top"/>
  <outline>
    <contour>
      <point x="88" y="0" type="line"/>
      <point x="113" y="0" type="line"/>
      <point x="193" y="272" type="line" smooth="yes"/>
      <point x="202" y="302"/>
      <point x="212" y="343"/>
      <point x="219" y="382" type="curve"/>
      <point x="221" y="382" type="line"/>
      <point x="228" y="343"/>
      <point x="238" y="302"/>
      <point x="247" y="272" type="curve" smooth="yes"/>
      <point x="326" y="0" type="line"/>
      <point x="352" y="0" type="line"/>
      <point x="391" y="365" type="line" smooth="yes"/>
      <point x="398" y="430"/>
      <point x="391" y="466"/>
      <point x="364" y="486" type="curve"/>
      <point x="364" y="489" type="line"/>
      <point x="399" y="496"/>
      <point x="423" y="519"/>
      <point x="423" y="584" type="curve"/>
      <point x="399" y="584" type="line"/>
      <point x="398" y="524"/>
      <point x="377" y="506"/>
      <point x="324" y="506" type="curve" smooth="yes"/>
      <point x="268" y="506" type="line"/>
      <point x="268" y="484" type="line"/>
      <point x="298" y="484" type="line" smooth="yes"/>
      <point x="363" y="484"/>
      <point x="378" y="458"/>
      <point x="368" y="356" type="curve" smooth="yes"/>
      <point x="353" y="208" type="line" smooth="yes"/>
      <point x="349" y="167"/>
      <point x="342" y="111"/>
      <point x="337" y="48" type="curve"/>
      <point x="334" y="48" type="line"/>
      <point x="319" y="103"/>
      <point x="307" y="142"/>
      <point x="291" y="198" type="curve" smooth="yes"/>
      <point x="228" y="416" type="line"/>
      <point x="211" y="416" type="line"/>
      <point x="148" y="198" type="line" smooth="yes"/>
      <point x="131" y="140"/>
      <point x="121" y="107"/>
      <point x="108" y="52" type="curve"/>
      <point x="105" y="52" type="line"/>
      <point x="101" y="115"/>
      <point x="96" y="167"/>
      <point x="92" y="208" type="curve" smooth="yes"/>
      <point x="61" y="548" type="line"/>
      <point x="37" y="548" type="line"/>
    </contour>
  </outline>
</glyph>
<glyph name="lu_lakkhangyao-thai" format="2">
  <advance width="642"/>
  <outline>
    <contour>
      <point x="317" y="-190" type="line"/>
      <point x="343" y="-190" type="line"/>
      <point x="343" y="375" type="line" smooth="yes"/>
      <point x="343" y="469"/>
      <point x="384" y="531"/>
      <point x="450" y="531" type="curve" smooth="yes"/>
      <point x="511" y="531"/>
      <point x="552" y="478"/>
      <point x="552" y="378" type="curve" smooth="yes"/>
      <point x="552" y="-190" type="line"/>
      <point x="578" y="-190" type="line"/>
      <point x="578" y="384" type="line" smooth="yes"/>
      <point x="578" y="492"/>
      <point x="528" y="556"/>
      <point x="453" y="556" type="curve" smooth="yes"/>
      <point x="393" y="556"/>
      <point x="346" y="512"/>
      <point x="331" y="436" type="curve"/>
      <point x="328" y="436" type="line"/>
      <point x="312" y="506"/>
      <point x="271" y="556"/>
      <point x="199" y="556" type="curve" smooth="yes"/>
      <point x="107" y="556"/>
      <point x="53" y="481"/>
      <point x="53" y="404" type="curve" smooth="yes"/>
      <point x="53" y="385" type="line"/>
      <point x="134" y="340" type="line"/>
      <point x="133" y="337" type="line"/>
      <point x="94" y="324"/>
      <point x="68" y="292"/>
      <point x="68" y="212" type="curve" smooth="yes"/>
      <point x="68" y="61" type="line" smooth="yes"/>
      <point x="68" y="29"/>
      <point x="64" y="15"/>
      <point x="47" y="15" type="curve" smooth="yes"/>
      <point x="39" y="15"/>
      <point x="32" y="18"/>
      <point x="25" y="22" type="curve"/>
      <point x="20" y="-1" type="line"/>
      <point x="30" y="-7"/>
      <point x="42" y="-10"/>
      <point x="52" y="-10" type="curve" smooth="yes"/>
      <point x="76" y="-10"/>
      <point x="94" y="7"/>
      <point x="94" y="56" type="curve" smooth="yes"/>
      <point x="94" y="213" type="line" smooth="yes"/>
      <point x="94" y="285"/>
      <point x="119" y="313"/>
      <point x="156" y="319" type="curve"/>
      <point x="160" y="350" type="line"/>
      <point x="80" y="401" type="line"/>
      <point x="80" y="473"/>
      <point x="126" y="531"/>
      <point x="196" y="531" type="curve" smooth="yes"/>
      <point x="268" y="531"/>
      <point x="317" y="469"/>
      <point x="317" y="372" type="curve" smooth="yes"/>
    </contour>
  </outline>
</glyph>
<glyph name="maiChattawa-thai.narrow" format="2">
  <anchor x="-141" y="536" name="_top"/>
  <anchor x="-216" y="844" name="top"/>
  <outline>
    <contour>
      <point x="-241" y="636" type="line"/>
      <point x="-217" y="636" type="line"/>
      <point x="-217" y="827" type="line"/>
      <point x="-241" y="827" type="line"/>
    </contour>
    <contour>
      <point x="-300" y="718" type="line"/>
      <point x="-158" y="718" type="line"/>
      <point x="-158" y="741" type="line"/>
      <point x="-300" y="741" type="line"/>
    </contour>
  </outline>
</glyph>
<glyph name="maiChattawa-thai.small" format="2">
  <anchor x="-72" y="772" name="_top"/>
  <anchor x="-70" y="989" name="top"/>
  <outline>
    <contour>
      <point x="-96" y="825" type="line"/>
      <point x="-72" y="825" type="line"/>
      <point x="-72" y="971" type="line"/>
      <point x="-96" y="971" type="line"/>
    </contour>
    <contour>
      <point x="-136" y="886" type="line"/>
      <point x="-33" y="886" type="line"/>
      <point x="-33" y="909" type="line"/>
      <point x="-136" y="909" type="line"/>
    </contour>
  </outline>
</glyph>
<glyph name="maiEk-thai.narrow" format="2">
  <anchor x="-144" y="536" name="_top"/>
  <anchor x="-201" y="845" name="top"/>
  <outline>
    <contour>
      <point x="-226" y="636" type="line"/>
      <point x="-200" y="636" type="line"/>
      <point x="-200" y="827" type="line"/>
      <point x="-226" y="827" type="line"/>
    </contour>
  </outline>
</glyph>
<glyph name="maiEk-thai.small" format="2">
  <anchor x="-72" y="772" name="_top"/>
  <anchor x="-72" y="989" name="top"/>
  <outline>
    <contour>
      <point x="-97" y="825" type="line"/>
      <point x="-72" y="825" type="line"/>
      <point x="-72" y="968" type="line"/>
      <point x="-97" y="968" type="line"/>
    </contour>
  </outline>
</glyph>
<glyph name="maiHanaKat-thai.narrow" format="2">
  <anchor x="-140" y="536" name="_top"/>
  <anchor x="-204" y="710" name="top"/>
  <outline>
    <contour>
      <point x="-274" y="636" type="curve" smooth="yes"/>
      <point x="-140" y="636" type="line"/>
      <point x="-140" y="660" type="line"/>
      <point x="-272" y="660" type="line" smooth="yes"/>
      <point x="-292" y="660"/>
      <point x="-300" y="672"/>
      <point x="-300" y="693" type="curve" smooth="yes"/>
      <point x="-300" y="704"/>
      <point x="-297" y="718"/>
      <point x="-295" y="726" type="curve"/>
      <point x="-318" y="730" type="line"/>
      <point x="-322" y="720"/>
      <point x="-325" y="702"/>
      <point x="-325" y="689" type="curve" smooth="yes"/>
      <point x="-325" y="659"/>
      <point x="-310" y="636"/>
    </contour>
  </outline>
</glyph>
<glyph name="maiTho-thai.narrow" format="2">
  <anchor x="-140" y="536" name="_top"/>
  <anchor x="-196" y="845" name="top"/>
  <outline>
    <contour>
      <point x="-303" y="636" type="line"/>
      <point x="-140" y="636" type="line"/>
      <point x="-140" y="660" type="line"/>
      <point x="-241" y="660" type="line"/>
      <point x="-239" y="663" type="line"/>
      <point x="-216" y="682"/>
      <point x="-201" y="711"/>
      <point x="-201" y="748" type="curve" smooth="yes"/>
      <point x="-201" y="793"/>
      <point x="-221" y="821"/>
      <point x="-255" y="821" type="curve" smooth="yes"/>
      <point x="-267" y="821"/>
      <point x="-285" y="816"/>
      <point x="-302" y="803" type="curve"/>
      <point x="-295" y="782" type="line"/>
      <point x="-284" y="790"/>
      <point x="-271" y="798"/>
      <point x="-260" y="798" type="curve" smooth="yes"/>
      <point x="-236" y="798"/>
      <point x="-226" y="778"/>
      <point x="-226" y="748" type="curve" smooth="yes"/>
      <point x="-226" y="700"/>
      <point x="-261" y="664"/>
      <point x="-303" y="653" type="curve"/>
    </contour>
  </outline>
</glyph>
<glyph name="maiTho-thai.small" format="2">
  <anchor x="-72" y="772" name="_top"/>
  <anchor x="-72" y="989" name="top"/>
  <outline>
    <contour>
      <point x="-149" y="825" type="line"/>
      <point x="-4" y="825" type="line"/>
      <point x="-4" y="849" type="line"/>
      <point x="-92" y="849" type="line"/>
      <point x="-92" y="852" type="line"/>
      <point x="-75" y="866"/>
      <point x="-68" y="886"/>
      <point x="-68" y="913" type="curve" smooth="yes"/>
      <point x="-68" y="948"/>
      <point x="-85" y="968"/>
      <point x="-110" y="968" type="curve" smooth="yes"/>
      <point x="-121" y="968"/>
      <point x="-135" y="964"/>
      <point x="-150" y="954" type="curve"/>
      <point x="-142" y="932" type="line"/>
      <point x="-134" y="939"/>
      <point x="-125" y="945"/>
      <point x="-114" y="945" type="curve" smooth="yes"/>
      <point x="-99" y="945"/>
      <point x="-91" y="933"/>
      <point x="-91" y="913" type="curve" smooth="yes"/>
      <point x="-91" y="885"/>
      <point x="-109" y="853"/>
      <point x="-149" y="842" type="curve"/>
    </contour>
  </outline>
</glyph>
<glyph name="maiTri-thai.narrow" format="2">
  <anchor x="-141" y="536" name="_top"/>
  <anchor x="-218" y="845" name="top"/>
  <outline>
    <contour>
      <point x="-295" y="631" type="curve" smooth="yes"/>
      <point x="-285" y="631"/>
      <point x="-276" y="634"/>
      <point x="-270" y="638" type="curve"/>
      <point x="-275" y="659" type="line"/>
      <point x="-280" y="656"/>
      <point x="-286" y="654"/>
      <point x="-292" y="654" type="curve" smooth="yes"/>
      <point x="-314" y="654"/>
      <point x="-330" y="677"/>
      <point x="-330" y="723" type="curve" smooth="yes"/>
      <point x="-330" y="770"/>
      <point x="-313" y="789"/>
      <point x="-296" y="792" type="curve"/>
      <point x="-266" y="761" type="line"/>
      <point x="-260" y="761" type="line"/>
      <point x="-231" y="792" type="line"/>
      <point x="-212" y="784"/>
      <point x="-196" y="763"/>
      <point x="-196" y="723" type="curve" smooth="yes"/>
      <point x="-196" y="686"/>
      <point x="-210" y="661"/>
      <point x="-229" y="651" type="curve"/>
      <point x="-229" y="636" type="line"/>
      <point x="-138" y="636" type="line"/>
      <point x="-138" y="657" type="line"/>
      <point x="-192" y="657" type="line"/>
      <point x="-192" y="660" type="line"/>
      <point x="-179" y="676"/>
      <point x="-173" y="700"/>
      <point x="-173" y="725" type="curve" smooth="yes"/>
      <point x="-173" y="778"/>
      <point x="-197" y="807"/>
      <point x="-230" y="819" type="curve"/>
      <point x="-263" y="783" type="line"/>
      <point x="-297" y="819" type="line"/>
      <point x="-330" y="813"/>
      <point x="-353" y="779"/>
      <point x="-353" y="722" type="curve" smooth="yes"/>
      <point x="-353" y="664"/>
      <point x="-329" y="631"/>
    </contour>
  </outline>
</glyph>
<glyph name="maiTri-thai.small" format="2">
  <anchor x="-71" y="772" name="_top"/>
  <anchor x="-71" y="989" name="top"/>
  <outline>
    <contour>
      <point x="-130" y="820" type="curve" smooth="yes"/>
      <point x="-120" y="820"/>
      <point x="-112" y="823"/>
      <point x="-107" y="826" type="curve"/>
      <point x="-112" y="847" type="line"/>
      <point x="-117" y="844"/>
      <point x="-122" y="843"/>
      <point x="-126" y="843" type="curve" smooth="yes"/>
      <point x="-148" y="843"/>
      <point x="-159" y="867"/>
      <point x="-159" y="897" type="curve" smooth="yes"/>
      <point x="-159" y="934"/>
      <point x="-143" y="946"/>
      <point x="-131" y="949" type="curve"/>
      <point x="-98" y="914" type="line"/>
      <point x="-94" y="914" type="line"/>
      <point x="-62" y="948" type="line"/>
      <point x="-50" y="943"/>
      <point x="-37" y="928"/>
      <point x="-37" y="899" type="curve" smooth="yes"/>
      <point x="-37" y="872"/>
      <point x="-49" y="850"/>
      <point x="-67" y="840" type="curve"/>
      <point x="-67" y="825" type="line"/>
      <point x="30" y="825" type="line"/>
      <point x="30" y="846" type="line"/>
      <point x="-31" y="846" type="line"/>
      <point x="-31" y="849" type="line"/>
      <point x="-19" y="863"/>
      <point x="-15" y="885"/>
      <point x="-15" y="902" type="curve" smooth="yes"/>
      <point x="-15" y="937"/>
      <point x="-33" y="962"/>
      <point x="-63" y="972" type="curve"/>
      <point x="-96" y="937" type="line"/>
      <point x="-129" y="972" type="line"/>
      <point x="-159" y="966"/>
      <point x="-182" y="943"/>
      <point x="-182" y="896" type="curve" smooth="yes"/>
      <point x="-182" y="851"/>
      <point x="-161" y="820"/>
    </contour>
  </outline>
</glyph>
<glyph name="maitaikhu-thai.narrow" format="2">
  <anchor x="-141" y="536" name="_top"/>
  <anchor x="-236" y="824" name="top"/>
  <outline>
    <contour>
      <point x="-190" y="621" type="curve" smooth="yes"/>
      <point x="-162" y="621"/>
      <point x="-139" y="642"/>
      <point x="-139" y="694" type="curve" smooth="yes"/>
      <point x="-139" y="708" type="line"/>
      <point x="-162" y="708" type="line"/>
      <point x="-162" y="694" type="line" smooth="yes"/>
      <point x="-162" y="661"/>
      <point x="-173" y="646"/>
      <point x="-193" y="646" type="curve" smooth="yes"/>
      <point x="-214" y="646"/>
      <point x="-228" y="669"/>
      <point x="-235" y="708" type="curve"/>
      <point x="-247" y="708" type="line"/>
      <point x="-283" y="649" type="line"/>
      <point x="-310" y="649"/>
      <point x="-327" y="676"/>
      <point x="-327" y="721" type="curve" smooth="yes"/>
      <point x="-327" y="777"/>
      <point x="-306" y="802"/>
      <point x="-276" y="802" type="curve" smooth="yes"/>
      <point x="-140" y="802" type="line"/>
      <point x="-140" y="827" type="line"/>
      <point x="-281" y="827" type="line" smooth="yes"/>
      <point x="-320" y="827"/>
      <point x="-351" y="790"/>
      <point x="-351" y="725" type="curve" smooth="yes"/>
      <point x="-351" y="660"/>
      <point x="-324" y="624"/>
      <point x="-277" y="624" type="curve"/>
      <point x="-246" y="679" type="line"/>
      <point x="-235" y="643"/>
      <point x="-217" y="621"/>
    </contour>
  </outline>
</glyph>
<glyph name="ru_lakkhangyao-thai" format="2">
  <advance width="641"/>
  <outline>
    <contour>
      <point x="316" y="-190" type="line"/>
      <point x="342" y="-190" type="line"/>
      <point x="342" y="375" type="line" smooth="yes"/>
      <point x="342" y="469"/>
      <point x="383" y="531"/>
      <point x="449" y="531" type="curve" smooth="yes"/>
      <point x="510" y="531"/>
      <point x="551" y="478"/>
      <point x="551" y="378" type="curve" smooth="yes"/>
      <point x="551" y="-190" type="line"/>
      <point x="577" y="-190" type="line"/>
      <point x="577" y="384" type="line" smooth="yes"/>
      <point x="577" y="492"/>
      <point x="528" y="556"/>
      <point x="453" y="556" type="curve" smooth="yes"/>
      <point x="392" y="556"/>
      <point x="346" y="512"/>
      <point x="330" y="436" type="curve"/>
      <point x="328" y="436" type="line"/>
      <point x="312" y="506"/>
      <point x="270" y="556"/>
      <point x="198" y="556" type="curve" smooth="yes"/>
      <point x="106" y="556"/>
      <point x="53" y="481"/>
      <point x="53" y="404" type="curve" smooth="yes"/>
      <point x="53" y="385" type="line"/>
      <point x="133" y="340" type="line"/>
      <point x="133" y="337" type="line"/>
      <point x="94" y="324"/>
      <point x="63" y="292"/>
      <point x="63" y="212" type="curve" smooth="yes"/>
      <point x="63" y="60" type="line" smooth="yes"/>
      <point x="63" y="11"/>
      <point x="89" y="-10"/>
      <point x="118" y="-10" type="curve" smooth="yes"/>
      <point x="130" y="-10"/>
      <point x="145" y="-6"/>
      <point x="156" y="1" type="curve"/>
      <point x="151" y="23" type="line"/>
      <point x="144" y="19"/>
      <point x="131" y="15"/>
      <point x="121" y="15" type="curve" smooth="yes"/>
      <point x="101" y="15"/>
      <point x="89" y="30"/>
      <point x="89" y="66" type="curve" smooth="yes"/>
      <point x="89" y="213" type="line" smooth="yes"/>
      <point x="89" y="285"/>
      <point x="119" y="313"/>
      <point x="155" y="319" type="curve"/>
      <point x="160" y="350" type="line"/>
      <point x="80" y="401" type="line"/>
      <point x="80" y="473"/>
      <point x="126" y="531"/>
      <point x="196" y="531" type="curve" smooth="yes"/>
      <point x="267" y="531"/>
      <point x="316" y="469"/>
      <point x="316" y="372" type="curve" smooth="yes"/>
    </contour>
  </outline>
</glyph>
<glyph name="saraI-thai.narrow" format="2">
  <anchor x="-141" y="536" name="_top"/>
  <anchor x="-141" y="714" name="top"/>
  <outline>
    <contour>
      <point x="-366" y="636" type="line"/>
      <point x="-141" y="636" type="line"/>
      <point x="-141" y="660" type="line"/>
      <point x="-341" y="660" type="line"/>
      <point x="-366" y="650" type="line"/>
    </contour>
  </outline>
</glyph>
<glyph name="saraIi-thai.narrow" format="2">
  <anchor x="-141" y="536" name="_top"/>
  <anchor x="-141" y="772" name="top"/>
  <outline>
    <contour>
      <point x="-366" y="636" type="line"/>
      <point x="-141" y="636" type="line"/>
      <point x="-141" y="660" type="line"/>
      <point x="-341" y="660" type="line"/>
      <point x="-366" y="650" type="line"/>
    </contour>
    <contour>
      <point x="-165" y="636" type="line"/>
      <point x="-141" y="636" type="line"/>
      <point x="-141" y="730" type="line"/>
      <point x="-165" y="730" type="line"/>
    </contour>
  </outline>
</glyph>
<glyph name="saraUe-thai.narrow" format="2">
  <anchor x="-140" y="536" name="_top"/>
  <anchor x="-168" y="772" name="top"/>
  <outline>
    <contour>
      <point x="-365" y="636" type="line"/>
      <point x="-181" y="636" type="line" smooth="yes"/>
      <point x="-151" y="636"/>
      <point x="-128" y="657"/>
      <point x="-128" y="700" type="curve" smooth="yes"/>
      <point x="-128" y="743"/>
      <point x="-150" y="764"/>
      <point x="-180" y="764" type="curve" smooth="yes"/>
      <point x="-208" y="764"/>
      <point x="-230" y="744"/>
      <point x="-230" y="701" type="curve" smooth="yes"/>
      <point x="-230" y="679"/>
      <point x="-223" y="657"/>
      <point x="-212" y="647" type="curve"/>
      <point x="-208" y="660" type="line"/>
      <point x="-340" y="660" type="line"/>
      <point x="-365" y="650" type="line"/>
    </contour>
    <contour>
      <point x="-179" y="660" type="curve" smooth="yes"/>
      <point x="-197" y="660"/>
      <point x="-209" y="675"/>
      <point x="-209" y="700" type="curve" smooth="yes"/>
      <point x="-209" y="725"/>
      <point x="-197" y="740"/>
      <point x="-180" y="740" type="curve" smooth="yes"/>
      <point x="-162" y="740"/>
      <point x="-150" y="725"/>
      <point x="-150" y="700" type="curve" smooth="yes"/>
      <point x="-150" y="675"/>
      <point x="-162" y="660"/>
    </contour>
  </outline>
</glyph>
<glyph name="saraUee-thai.narrow" format="2">
  <anchor x="-140" y="536" name="_top"/>
  <anchor x="-172" y="772" name="top"/>
  <outline>
    <contour>
      <point x="-366" y="636" type="line"/>
      <point x="-140" y="636" type="line"/>
      <point x="-140" y="660" type="line"/>
      <point x="-341" y="660" type="line"/>
      <point x="-366" y="650" type="line"/>
    </contour>
    <contour>
      <point x="-228" y="654" type="line"/>
      <point x="-205" y="654" type="line"/>
      <point x="-205" y="743" type="line"/>
      <point x="-228" y="743" type="line"/>
    </contour>
    <contour>
      <point x="-163" y="654" type="line"/>
      <point x="-140" y="654" type="line"/>
      <point x="-140" y="743" type="line"/>
      <point x="-163" y="743" type="line"/>
    </contour>
  </outline>
</glyph>
<glyph name="thanthakhat-thai.narrow" format="2">
  <anchor x="-148" y="536" name="_top"/>
  <anchor x="-201" y="713" name="top"/>
  <outline>
    <contour>
      <point x="-284" y="606" type="curve"/>
      <point x="-261" y="611" type="line"/>
      <point x="-265" y="620"/>
      <point x="-267" y="631"/>
      <point x="-267" y="641" type="curve" smooth="yes"/>
      <point x="-267" y="662"/>
      <point x="-259" y="674"/>
      <point x="-237" y="674" type="curve" smooth="yes"/>
      <point x="-139" y="674" type="line"/>
      <point x="-139" y="698" type="line"/>
      <point x="-243" y="698" type="line" smooth="yes"/>
      <point x="-276" y="698"/>
      <point x="-292" y="678"/>
      <point x="-292" y="646" type="curve" smooth="yes"/>
      <point x="-292" y="631"/>
      <point x="-289" y="617"/>
    </contour>
  </outline>
</glyph>
<glyph name="thanthakhat-thai.small" format="2">
  <anchor x="-72" y="772" name="_top"/>
  <anchor x="-72" y="989" name="top"/>
  <outline>
    <contour>
      <point x="-138" y="821" type="curve"/>
      <point x="-115" y="826" type="line"/>
      <point x="-119" y="835"/>
      <point x="-121" y="846"/>
      <point x="-121" y="856" type="curve" smooth="yes"/>
      <point x="-121" y="877"/>
      <point x="-113" y="889"/>
      <point x="-91" y="889" type="curve" smooth="yes"/>
      <point x="-12" y="889" type="line"/>
      <point x="-12" y="913" type="line"/>
      <point x="-97" y="913" type="line" smooth="yes"/>
      <point x="-130" y="913"/>
      <point x="-146" y="893"/>
      <point x="-146" y="861" type="curve" smooth="yes"/>
      <point x="-146" y="846"/>
      <point x="-143" y="832"/>
    </contour>
  </outline>
</glyph>
<glyph name="thoThan-thai.less" format="2">
  <advance width="375"/>
  <anchor x="277" y="0" name="bottom"/>
  <anchor x="317" y="536" name="top"/>
  <outline>
    <contour>
      <point x="114" y="0" type="line"/>
      <point x="141" y="0" type="line" smooth="yes"/>
      <point x="255" y="0"/>
      <point x="311" y="71"/>
      <point x="311" y="274" type="curve" smooth="yes"/>
      <point x="311" y="375"/>
      <point x="299" y="447"/>
      <point x="270" y="493" type="curve"/>
      <point x="248" y="536"/>
      <point x="209" y="556"/>
      <point x="155" y="556" type="curve" smooth="yes"/>
      <point x="104" y="556"/>
      <point x="58" y="531"/>
      <point x="31" y="511" type="curve"/>
      <point x="31" y="482" type="line"/>
      <point x="68" y="512"/>
      <point x="108" y="531"/>
      <point x="150" y="531" type="curve" smooth="yes"/>
      <point x="246" y="531"/>
      <point x="284" y="464"/>
      <point x="284" y="275" type="curve" smooth="yes"/>
      <point x="284" y="82"/>
      <point x="229" y="25"/>
      <point x="150" y="25" type="curve" smooth="yes"/>
      <point x="140" y="25" type="line"/>
      <point x="140" y="300" type="line"/>
      <point x="62" y="300" type="line"/>
      <point x="62" y="277" type="line"/>
      <point x="114" y="277" type="line"/>
    </contour>
    <contour>
      <point x="268" y="479" type="line"/>
      <point x="309" y="493"/>
      <point x="341" y="528"/>
      <point x="341" y="584" type="curve"/>
      <point x="314" y="584" type="line"/>
      <point x="314" y="533"/>
      <point x="286" y="509"/>
      <point x="254" y="498" type="curve"/>
    </contour>
  </outline>
</glyph>
<glyph name="toPatak-thai.short" format="2">
  <advance width="407"/>
  <anchor x="343" y="-163" name="bottom"/>
  <anchor x="336" y="536" name="top"/>
  <outline>
    <contour>
      <point x="56" y="-163" type="line"/>
      <point x="82" y="-163" type="line"/>
      <point x="82" y="-153" type="line" smooth="yes"/>
      <point x="82" y="-112"/>
      <point x="95" y="-83"/>
      <point x="125" y="-83" type="curve" smooth="yes"/>
      <point x="159" y="-83"/>
      <point x="177" y="-118"/>
      <point x="195" y="-163" type="curve"/>
      <point x="210" y="-163" type="line"/>
      <point x="262" y="-93" type="line"/>
      <point x="320" y="-163" type="line"/>
      <point x="343" y="-163" type="line"/>
      <point x="343" y="374" type="line" smooth="yes"/>
      <point x="343" y="492"/>
      <point x="283" y="556"/>
      <point x="199" y="556" type="curve" smooth="yes"/>
      <point x="106" y="556"/>
      <point x="53" y="481"/>
      <point x="53" y="404" type="curve" smooth="yes"/>
      <point x="53" y="385" type="line"/>
      <point x="134" y="340" type="line"/>
      <point x="133" y="337" type="line"/>
      <point x="94" y="324"/>
      <point x="68" y="292"/>
      <point x="68" y="212" type="curve" smooth="yes"/>
      <point x="68" y="64" type="line" smooth="yes"/>
      <point x="68" y="32"/>
      <point x="64" y="18"/>
      <point x="47" y="18" type="curve" smooth="yes"/>
      <point x="39" y="18"/>
      <point x="32" y="21"/>
      <point x="25" y="25" type="curve"/>
      <point x="20" y="2" type="line"/>
      <point x="30" y="-4"/>
      <point x="42" y="-7"/>
      <point x="51" y="-7" type="curve" smooth="yes"/>
      <point x="76" y="-7"/>
      <point x="94" y="10"/>
      <point x="94" y="59" type="curve" smooth="yes"/>
      <point x="94" y="213" type="line" smooth="yes"/>
      <point x="94" y="285"/>
      <point x="119" y="313"/>
      <point x="156" y="319" type="curve"/>
      <point x="160" y="350" type="line"/>
      <point x="80" y="401" type="line"/>
      <point x="80" y="473"/>
      <point x="125" y="531"/>
      <point x="198" y="531" type="curve" smooth="yes"/>
      <point x="269" y="531"/>
      <point x="317" y="478"/>
      <point x="317" y="368" type="curve" smooth="yes"/>
      <point x="317" y="-144" type="line"/>
      <point x="326" y="-140" type="line"/>
      <point x="262" y="-62" type="line"/>
      <point x="206" y="-135" type="line"/>
      <point x="190" y="-94"/>
      <point x="163" y="-58"/>
      <point x="123" y="-58" type="curve" smooth="yes"/>
      <point x="83" y="-58"/>
      <point x="56" y="-94"/>
      <point x="56" y="-149" type="curve" smooth="yes"/>
    </contour>
  </outline>
</glyph>
<glyph name="yoYing-thai.less" format="2">
  <advance width="617"/>
  <anchor x="539" y="0" name="bottom"/>
  <anchor x="553" y="536" name="top"/>
  <outline>
    <contour>
      <point x="424" y="-10" type="curve" smooth="yes"/>
      <point x="504" y="-10"/>
      <point x="553" y="53"/>
      <point x="553" y="154" type="curve" smooth="yes"/>
      <point x="553" y="548" type="line"/>
      <point x="527" y="548" type="line"/>
      <point x="527" y="157" type="line" smooth="yes"/>
      <point x="527" y="62"/>
      <point x="483" y="15"/>
      <point x="424" y="15" type="curve" smooth="yes"/>
      <point x="364" y="15"/>
      <point x="323" y="62"/>
      <point x="323" y="157" type="curve" smooth="yes"/>
      <point x="323" y="374" type="line" smooth="yes"/>
      <point x="323" y="499"/>
      <point x="265" y="556"/>
      <point x="189" y="556" type="curve" smooth="yes"/>
      <point x="105" y="556"/>
      <point x="53" y="488"/>
      <point x="53" y="404" type="curve" smooth="yes"/>
      <point x="53" y="385" type="line"/>
      <point x="133" y="340" type="line"/>
      <point x="133" y="337" type="line"/>
      <point x="94" y="324"/>
      <point x="63" y="292"/>
      <point x="63" y="212" type="curve" smooth="yes"/>
      <point x="63" y="88" type="line" smooth="yes"/>
      <point x="63" y="20"/>
      <point x="94" y="-7"/>
      <point x="135" y="-7" type="curve" smooth="yes"/>
      <point x="150" y="-7"/>
      <point x="164" y="-3"/>
      <point x="178" y="5" type="curve"/>
      <point x="173" y="28" type="line"/>
      <point x="163" y="22"/>
      <point x="149" y="17"/>
      <point x="137" y="17" type="curve" smooth="yes"/>
      <point x="107" y="17"/>
      <point x="89" y="40"/>
      <point x="89" y="89" type="curve" smooth="yes"/>
      <point x="89" y="213" type="line" smooth="yes"/>
      <point x="89" y="285"/>
      <point x="119" y="313"/>
      <point x="155" y="319" type="curve"/>
      <point x="160" y="350" type="line"/>
      <point x="80" y="401" type="line"/>
      <point x="80" y="480"/>
      <point x="123" y="531"/>
      <point x="188" y="531" type="curve" smooth="yes"/>
      <point x="252" y="531"/>
      <point x="297" y="485"/>
      <point x="297" y="368" type="curve" smooth="yes"/>
      <point x="297" y="154" type="line" smooth="yes"/>
      <point x="297" y="53"/>
      <point x="343" y="-10"/>
    </contour>
  </outline>
</glyph>
